<?xml version="1.0" encoding="UTF-8"?>
<svg width="386px" height="271px" viewBox="0 0 386 271" version="1.1" xmlns="http://www.w3.org/2000/svg" xmlns:xlink="http://www.w3.org/1999/xlink">
    <title>371C0230-EF00-4C0A-9FD1-5BC87F61E28B</title>
    <defs>
        <linearGradient x1="18.7421072%" y1="61.9795863%" x2="81.8263523%" y2="44.651689%" id="linearGradient-1">
            <stop stop-color="#EEF6FD" offset="0%"></stop>
            <stop stop-color="#E5F3FF" offset="100%"></stop>
        </linearGradient>
        <linearGradient x1="16.3334883%" y1="-34.2234135%" x2="51.123367%" y2="78.6062466%" id="linearGradient-2">
            <stop stop-color="#2CFF68" offset="0%"></stop>
            <stop stop-color="#5073FF" offset="100%"></stop>
        </linearGradient>
        <linearGradient x1="30.9265677%" y1="-11.9378423%" x2="58.4936967%" y2="70.7127716%" id="linearGradient-3">
            <stop stop-color="#00FF55" offset="0%"></stop>
            <stop stop-color="#008899" offset="100%"></stop>
        </linearGradient>
        <path d="M22.8575239,1.6792702 C22.8575239,0.88043093 22.2076368,0.228409209 21.4083232,0.228409209 C17.316881,0.228409209 5.74462207,0.228409209 1.65317984,0.228409209 C0.853866203,0.228409209 0.201607298,0.88043093 0.201607298,1.6792702 L0.201607298,13.1379175 C0.201607298,13.9365195 0.853866203,14.5885413 1.65317984,14.5885413 L21.4083232,14.5885413 C22.2076368,14.5885413 22.8575239,13.9365195 22.8575239,13.1379175 C22.8575239,10.3832502 22.8575239,4.43393745 22.8575239,1.6792702 Z" id="path-4"></path>
        <path d="M22.8575239,1.6792702 C22.8575239,0.88043093 22.2076368,0.228409209 21.4083232,0.228409209 C17.316881,0.228409209 5.74462207,0.228409209 1.65317984,0.228409209 C0.853866203,0.228409209 0.201607298,0.88043093 0.201607298,1.6792702 L0.201607298,13.1379175 C0.201607298,13.9365195 0.853866203,14.5885413 1.65317984,14.5885413 L21.4083232,14.5885413 C22.2076368,14.5885413 22.8575239,13.9365195 22.8575239,13.1379175 C22.8575239,10.3832502 22.8575239,4.43393745 22.8575239,1.6792702 Z" id="path-6"></path>
        <linearGradient x1="20.125109%" y1="20.3639561%" x2="90.199703%" y2="88.2021653%" id="linearGradient-8">
            <stop stop-color="#FFE052" offset="0%"></stop>
            <stop stop-color="#FFC331" offset="100%"></stop>
        </linearGradient>
        <linearGradient x1="66.0330888%" y1="64.17523%" x2="34.2292659%" y2="27.6223486%" id="linearGradient-9">
            <stop stop-color="#4E5161" offset="0%"></stop>
            <stop stop-color="#1C223C" offset="100%"></stop>
        </linearGradient>
        <linearGradient x1="11.9307245%" y1="87.6211447%" x2="93.9296953%" y2="34.9631067%" id="linearGradient-10">
            <stop stop-color="#B0B1B6" offset="0%"></stop>
            <stop stop-color="#9396A4" offset="100%"></stop>
        </linearGradient>
    </defs>
    <g id="Page-1" stroke="none" stroke-width="1" fill="none" fill-rule="evenodd">
        <g id="Sign-IN" transform="translate(-171.000000, -243.000000)">
            <g id="Languages" transform="translate(171.000000, 243.000000)">
                <path d="M42.5834935,249.897646 C4.5616616,228.126429 13.7673354,174.894513 77.8548089,139.571017 C141.96593,104.222853 189.284348,153.505401 242.320113,94.4913875 C295.330973,35.4776108 369.880608,57.5830209 383.589904,121.700308 C397.299201,185.792454 338.002937,260.542511 280.770182,260.542511 C223.560435,260.492702 112.370927,289.858584 42.5834935,249.897646 Z" id="Path" fill="url(#linearGradient-1)" fill-rule="nonzero"></path>
                <path d="M56.9886907,214.843592 C56.9886907,214.843592 60.5936664,202.96062 59.7635187,193.781559 C58.980808,184.602497 47.2641034,197.339334 47.2641034,197.339334 C47.2641034,197.339334 52.1026785,187.685903 53.4309149,178.174782 C54.7591512,168.663661 43.8484014,171.581275 37.0411903,187.804732 C37.0411903,187.804732 36.6379757,172.719526 32.2974891,169.090594 C28.0044396,165.461663 14.9830749,198.454104 16.9517109,214.819873 L56.9886907,214.819873 L56.9886907,214.843592 Z" id="Path" fill="url(#linearGradient-2)" fill-rule="nonzero"></path>
                <path d="M17.4973788,197.624194 C17.4973788,197.624194 22.5968575,191.33879 23.1898202,185.314289 C23.7827828,179.289789 17.9239561,180.831492 16.0501942,188.80091 C16.0501942,188.80091 14.8881534,181.471891 13.03811,176.348694 C11.1880666,171.225497 5.49545917,171.320371 5.85123675,178.459641 C6.20701434,185.598911 9.8124881,190.888138 9.8124881,190.888138 C9.8124881,190.888138 6.01733745,185.053386 2.26981355,183.369372 C-1.52513549,181.709076 0.0640968897,187.354081 2.48337498,190.769546 C4.92638106,194.161292 10.5712905,197.742786 10.5712905,197.742786 L17.4973788,197.624194 Z" id="Path" fill="url(#linearGradient-3)" fill-rule="nonzero"></path>
                <path d="M8.81590765,172.766963 C9.4563073,175.897805 10.0968018,179.028648 10.808357,182.159491 C11.9468453,180.973566 12.9907441,179.692766 13.7022993,178.245937 C13.7497363,178.435685 13.8207021,178.601952 13.8681391,178.7917 C13.7969836,178.910293 13.7256383,179.028885 13.6782013,179.147478 C12.9192091,180.428277 11.9942823,181.590247 10.9269495,182.633861 C11.8045342,186.476259 12.7535591,190.294938 13.8208918,194.018744 C15.0068171,193.710403 15.9316491,192.667026 16.7143598,191.718286 C18.3034997,189.773368 19.4658962,187.52011 20.5806659,185.266852 C21.1261916,184.128364 21.6716223,182.96592 22.1459924,181.803713 C22.2883035,181.874869 22.3831775,181.946024 22.50177,182.040898 C21.6241853,184.151845 20.6517266,186.215355 19.5369568,188.20771 C20.6042896,188.20771 21.6713377,188.136554 22.6912334,187.970525 C22.6437964,188.112836 22.5964543,188.255147 22.5490173,188.421176 C21.5291215,188.563487 20.4619785,188.634643 19.4183643,188.610924 C19.3946458,188.610924 19.3472088,188.611162 19.2997718,188.587443 C19.2048977,188.729754 19.1337422,188.871828 19.0625867,189.014139 C17.9715354,190.887901 16.7378885,192.809337 14.9827191,193.924107 C14.65066,194.137573 14.3189805,194.303603 13.9394844,194.398477 C14.1529509,195.086314 14.3662277,195.77415 14.5796943,196.461987 C14.6982868,196.817765 14.7932557,197.173542 14.9118482,197.52932 C14.9118482,197.52932 14.935377,197.57652 14.9590955,197.623957 L14.508349,197.623957 C14.1525714,196.580342 13.8443257,195.536728 13.5359851,194.469395 C13.5122666,194.469395 13.5124564,194.469395 13.4887379,194.469395 C13.4650194,194.469395 13.4647348,194.469395 13.4410162,194.469395 L13.4173926,194.469395 C10.4762979,194.137336 7.86735717,192.429841 5.80384718,190.484924 C4.83138844,190.793264 3.76424544,191.05393 2.79178671,191.05393 C2.69691268,190.935338 2.60165917,190.816745 2.53050365,190.698153 C2.53050365,190.674434 2.50697489,190.650953 2.48325639,190.603516 C3.43199661,190.674672 4.49932937,190.39005 5.44806959,190.129146 C3.43199661,188.136791 1.70073782,185.859578 0.301345986,183.392853 C0.396220009,183.274261 0.490816525,183.179387 0.609409053,183.108231 C1.86648985,185.361489 3.43199661,187.448955 5.21088454,189.298998 C5.42435109,189.536183 5.66163102,189.773131 5.89881607,189.986598 C5.92253458,189.986598 5.97006646,189.962879 5.99378497,189.962879 C5.99378497,189.962879 6.01712398,189.962879 6.0882795,189.962879 C6.25430904,189.986598 6.32584405,190.200064 6.23097003,190.318657 C8.27076151,192.216137 10.666046,193.75784 13.4173926,194.066181 C12.6821189,191.480864 12.0654378,188.872065 11.4013196,186.26303 C11.1404161,185.077104 10.855794,183.891179 10.5711719,182.705254 C10.5000164,182.705254 10.4291455,182.705254 10.3817085,182.705254 C8.91116116,182.657817 7.51148471,182.017417 6.18324839,181.234706 C6.13581138,181.068677 6.111998,180.878692 6.0882795,180.712662 C7.15561225,181.37678 8.27057176,181.898825 9.48021555,182.183447 C9.81227463,182.254602 10.144144,182.302039 10.476203,182.302039 C9.74092937,179.147478 9.05328245,175.992917 8.4128828,172.814637 C8.55519383,172.814637 8.67359661,172.790681 8.81590765,172.766963 Z" id="Path" fill="#FFFFFF" fill-rule="nonzero"></path>
                <path d="M7.08471764,214.843829 C7.08471764,214.843829 6.53909713,212.163638 4.97367576,208.890484 C3.59800243,206.067982 3.57409418,202.367895 3.71640521,198.264593 C3.74012372,197.742786 4.11971468,197.339572 4.64152181,197.268416 C11.1403924,196.319676 17.5445786,196.319676 23.8062641,197.268416 C24.3043527,197.339572 24.6836116,197.766505 24.7073301,198.264593 C24.8733597,202.367895 24.8498784,206.0917 23.4504865,208.890484 C21.8613467,212.163638 21.3394447,214.843829 21.3394447,214.843829 L7.08471764,214.843829 Z" id="Path" fill="#CACACA" fill-rule="nonzero"></path>
                <path d="M8.19936881,196.841246 C8.95836099,197.88486 10.3339394,199.379363 12.3737309,200.019763 L7.2983265,201.798651 C7.2983265,201.798651 7.48781364,206.708381 9.26670156,208.62958 C11.0455895,210.550779 13.8679968,210.716809 14.864174,212.543134 C15.7654772,214.203429 19.4892826,214.55897 21.7425407,213.396763 C21.4816371,214.321785 21.3631394,214.891029 21.3631394,214.891029 L7.13203606,214.891029 C7.13203606,214.891029 6.58641555,212.210838 5.02099418,208.937684 C3.64532085,206.115182 3.62186325,202.415332 3.76417428,198.31203 C3.78789279,197.790223 4.16748375,197.386772 4.68929088,197.315616 C5.82777915,197.078431 7.01344353,196.959838 8.19936881,196.841246 Z" id="Path" fill="#A3A3A3" fill-rule="nonzero"></path>
                <path d="M3.6928053,200.612488 C3.45562024,200.636207 3.17099818,200.565051 2.98125013,200.375303 C2.79150209,200.209274 2.69681781,199.94837 2.69681781,199.687467 C2.72053632,199.213096 2.72034657,198.715008 2.74406507,198.216919 C2.76778358,197.647675 3.1950013,197.197023 3.74052693,197.102149 C10.8560786,196.082254 17.8767563,196.058535 24.731523,197.102149 C25.2770487,197.197023 25.6800261,197.647675 25.7037446,198.193201 C25.7274631,198.715008 25.7272259,199.213096 25.7509444,199.711185 C25.7509444,199.972089 25.6563076,200.232992 25.4665595,200.399022 C25.2768115,200.565051 24.9924266,200.659925 24.731523,200.612488 C17.8293193,199.782341 10.8320755,199.758622 3.6928053,200.612488 Z" id="Path" fill="#707070" fill-rule="nonzero"></path>
                <path d="M8.03348158,196.627779 C8.76875526,197.671394 10.1916758,199.331689 12.3500599,199.995807 C9.48012068,200.066963 6.61018149,200.256948 3.6928053,200.612725 C3.45562024,200.636444 3.17099818,200.565288 2.98125013,200.37554 C2.79150209,200.209511 2.69681781,199.94837 2.69681781,199.687467 C2.72053632,199.213096 2.72034657,198.715008 2.74406507,198.216919 C2.76778358,197.647675 3.1950013,197.197023 3.74052693,197.102149 C5.16363727,196.93612 6.61037124,196.77009 8.03348158,196.627779 Z" id="Path" fill="#4E4E4E" fill-rule="nonzero"></path>
                <path d="M345.735169,218.258345 C345.735169,218.258345 350.834648,211.972941 351.427611,205.94844 C352.020573,199.92394 346.162103,201.465643 344.288341,209.435061 C344.288341,209.435061 343.126134,202.106043 341.27609,196.982845 C339.426047,191.859648 333.733606,191.954522 334.089383,199.093792 C334.445161,206.233063 338.050374,211.522289 338.050374,211.522289 C338.050374,211.522289 334.255413,205.687537 330.507889,204.003523 C326.712928,202.343228 328.302068,207.988232 330.721355,211.403697 C333.164361,214.795443 338.809366,218.376937 338.809366,218.376937 L345.735169,218.258345 Z" id="Path" fill="#00D268" fill-rule="nonzero"></path>
                <path d="M337.030478,193.401114 C337.670877,196.531957 338.311277,199.663036 339.022832,202.793879 C340.161321,201.607954 341.204935,200.327155 341.91649,198.880326 C341.963927,199.070074 342.035083,199.236103 342.08252,199.425851 C342.011364,199.544444 341.940209,199.663036 341.892772,199.781629 C341.133779,201.062428 340.208758,202.224635 339.141425,203.268249 C340.01901,207.110647 340.96775,210.929327 342.035083,214.653132 C343.221008,214.344791 344.14603,213.301177 344.92874,212.352437 C346.51788,210.40752 347.680087,208.154024 348.794857,205.900766 C349.340382,204.762278 349.885908,203.600308 350.360278,202.438102 C350.502589,202.509257 350.597463,202.580413 350.716056,202.675287 C349.838471,204.786234 348.866012,206.849744 347.751242,208.842098 C348.818575,208.842098 349.885908,208.770943 350.905804,208.604913 C350.858367,208.747224 350.81093,208.889298 350.763493,209.055328 C349.743597,209.197639 348.676264,209.269031 347.63265,209.245313 C347.608931,209.245313 347.561494,209.245076 347.514057,209.221357 C347.419183,209.363668 347.348028,209.505979 347.276872,209.64829 C346.185821,211.522052 344.952459,213.443251 343.197289,214.558021 C342.86523,214.771487 342.533171,214.937517 342.153675,215.032391 C342.367142,215.720228 342.580608,216.408301 342.794075,217.096138 C342.912667,217.451916 343.007541,217.807693 343.126134,218.163471 C343.126134,218.163471 343.149852,218.210908 343.173571,218.258345 L342.722919,218.258345 C342.367142,217.214731 342.058801,216.170879 341.75046,215.103546 C341.726742,215.103546 341.726742,215.103546 341.703023,215.103546 C341.679305,215.103546 341.679305,215.103546 341.655586,215.103546 L341.631868,215.103546 C338.690773,214.771487 336.081738,213.063755 334.018228,211.118838 C333.045769,211.427178 331.978436,211.688319 331.005977,211.688319 C330.911103,211.569726 330.816229,211.451134 330.745074,211.332541 C330.745074,211.308823 330.721355,211.284867 330.697637,211.23743 C331.646377,211.308586 332.71371,211.023964 333.66245,210.76306 C331.646377,208.770705 329.914926,206.493966 328.515534,204.027242 C328.610408,203.908649 328.705282,203.813775 328.823875,203.742619 C330.080956,205.995877 331.646377,208.082869 333.425265,209.932912 C333.638732,210.170097 333.875917,210.40752 334.113102,210.620986 C334.13682,210.620986 334.184257,210.59703 334.207976,210.59703 C334.207976,210.59703 334.231694,210.59703 334.30285,210.59703 C334.468879,210.620749 334.540035,210.834215 334.445161,210.952808 C336.484952,212.850288 338.880521,214.392228 341.631868,214.700569 C340.896594,212.115252 340.279913,209.506216 339.615795,206.897181 C339.354891,205.711255 339.070269,204.52533 338.785647,203.339405 C338.714492,203.339405 338.643336,203.339405 338.595899,203.339405 C337.125352,203.291968 335.72596,202.651331 334.397724,201.86862 C334.350287,201.702591 334.326568,201.512843 334.30285,201.346813 C335.370182,202.010931 336.484952,202.532738 337.694596,202.817361 C338.026655,202.888516 338.358714,202.935953 338.690773,202.935953 C337.9555,199.781392 337.267663,196.626831 336.627263,193.448551 C336.769574,193.448551 336.911885,193.424832 337.030478,193.401114 Z" id="Path" fill="#FFFFFF" fill-rule="nonzero"></path>
                <g id="Group" opacity="0.05" transform="translate(245.960904, 120.624674)" fill-rule="nonzero">
                    <path d="M47.0812337,10.3177871 L47.0812337,3.40597741 C47.0812337,1.5490556 45.567993,0.0315456125 43.7084622,0.0315456125 L3.47950478,0.0315456125 C1.61997394,0.0315456125 0.106733275,1.5490556 0.106733275,3.40597741 L0.106733275,10.3177871 L47.0812337,10.3177871 Z M24.7265421,4.701245 L41.1871851,4.701245 C41.7066203,4.701245 42.1264379,5.12272285 42.1264379,5.64381842 C42.1264379,6.1646768 41.7066203,6.58639183 41.1871851,6.58639183 L24.7265421,6.58639183 C24.2071069,6.58639183 23.7872893,6.1646768 23.7872893,5.64381842 C23.7872893,5.12272285 24.2071069,4.701245 24.7265421,4.701245 Z M11.7904692,5.13387055 C11.7904692,4.61277498 12.2102867,4.19129713 12.729722,4.19129713 C13.2491573,4.19129713 13.6689748,4.61277498 13.6689748,5.13387055 L13.6689748,6.15471503 C13.6689748,6.67557341 13.2491573,7.09705126 12.729722,7.09705126 C12.2102867,7.09705126 11.7904692,6.67557341 11.7904692,6.15471503 L11.7904692,5.13387055 Z M8.42244136,5.13387055 C8.42244136,4.61277498 8.84225891,4.19129713 9.36169418,4.19129713 C9.88112945,4.19129713 10.300947,4.61277498 10.300947,5.13387055 L10.300947,6.15471503 C10.300947,6.67557341 9.88112945,7.09705126 9.36169418,7.09705126 C8.84225891,7.09705126 8.42244136,6.67557341 8.42244136,6.15471503 L8.42244136,5.13387055 Z M5.0567854,5.13387055 C5.0567854,4.61277498 5.47660295,4.19129713 5.99603823,4.19129713 C6.5154735,4.19129713 6.93529105,4.61277498 6.93529105,5.13387055 L6.93529105,6.15471503 C6.93529105,6.67557341 6.5154735,7.09705126 5.99603823,7.09705126 C5.47660295,7.09705126 5.0567854,6.67557341 5.0567854,6.15471503 L5.0567854,5.13387055 Z" id="Shape" fill="#2B79C2"></path>
                    <path d="M0.106733275,12.2026968 L0.106733275,43.774874 C0.106733275,45.641046 1.61997394,47.158556 3.47950478,47.158556 L43.7084622,47.158556 C45.567993,47.158556 47.0812337,45.641046 47.0812337,43.774874 L47.0812337,12.2026968 L0.106733275,12.2026968 Z M19.4396872,31.597556 C19.8073241,31.9656672 19.8073241,32.5621877 19.4396872,32.9302989 C19.2570547,33.1143545 19.0174978,33.2066195 18.7755691,33.2066195 C18.5360122,33.2066195 18.2964553,33.1143545 18.1114509,32.9302989 L14.1243701,28.9308844 C13.9488532,28.7541816 13.8492354,28.5148619 13.8492354,28.2646316 C13.8492354,28.0141642 13.9488532,27.7748445 14.1243701,27.5981416 L18.1114509,23.5996759 C18.4790877,23.2315647 19.0744222,23.2315647 19.4396872,23.5996759 C19.8073241,23.9677871 19.8073241,24.5643076 19.4396872,24.932656 L16.1190964,28.2646316 L19.4396872,31.597556 Z M26.3892094,19.7852659 L22.6321981,37.1441286 C22.5349522,37.5860043 22.1459687,37.8869922 21.7142919,37.8869922 C21.6478801,37.8869922 21.5814683,37.8805882 21.5126846,37.8658827 C21.0074805,37.7553545 20.6849088,37.2527593 20.7940139,36.7447089 L24.553397,19.3858462 C24.6625022,18.8768471 25.1653345,18.5519036 25.6705387,18.6643293 C26.1781147,18.7746203 26.4983145,19.2772155 26.3892094,19.7852659 Z M33.0564813,28.9308844 L29.0717724,32.9302989 C28.8891399,33.1143545 28.6472111,33.2066195 28.4076542,33.2066195 C28.1680973,33.2066195 27.9261685,33.1143545 27.7435361,32.9302989 C27.3758992,32.5621877 27.3758992,31.9656672 27.7435361,31.597556 L31.0641268,28.2646316 L27.7435361,24.932656 C27.3758992,24.5643076 27.3758992,23.9677871 27.7435361,23.5996759 C28.1111729,23.2315647 28.7041355,23.2315647 29.0717724,23.5996759 L33.0564813,27.5981416 C33.4241182,27.9662528 33.4241182,28.5627732 33.0564813,28.9308844 Z" id="Shape" fill="#3B4651"></path>
                </g>
                <g id="Group" opacity="0.05" transform="translate(135.432667, 103.072980)" fill-rule="nonzero">
                    <path d="M47.0826568,10.4759896 L47.0826568,3.56417984 C47.0826568,1.70725804 45.5701277,0.189748045 43.7098853,0.189748045 L3.4806907,0.189748045 C1.62068549,0.189748045 0.107919201,1.70725804 0.107919201,3.56417984 L0.107919201,10.4759896 L47.0826568,10.4759896 Z M24.7282024,4.85944744 L41.1886082,4.85944744 C41.7080434,4.85944744 42.1280982,5.28092528 42.1280982,5.80202085 C42.1280982,6.32287924 41.7080434,6.74459427 41.1886082,6.74459427 L24.7282024,6.74459427 C24.2090043,6.74459427 23.7887124,6.32287924 23.7887124,5.80202085 C23.7887124,5.28092528 24.2090043,4.85944744 24.7282024,4.85944744 Z M11.7909435,5.29207298 C11.7909435,4.77097741 12.2109983,4.34949957 12.7304335,4.34949957 C13.2496316,4.34949957 13.6699235,4.77097741 13.6699235,5.29207298 L13.6699235,6.31291746 C13.6699235,6.83377585 13.2496316,7.25525369 12.7304335,7.25525369 C12.2109983,7.25525369 11.7909435,6.83377585 11.7909435,6.31291746 L11.7909435,5.29207298 Z M8.42362728,5.29207298 C8.42362728,4.77097741 8.8439192,4.34949957 9.36311729,4.34949957 C9.88255256,4.34949957 10.3026073,4.77097741 10.3026073,5.29207298 L10.3026073,6.31291746 C10.3026073,6.83377585 9.88255256,7.25525369 9.36311729,7.25525369 C8.8439192,7.25525369 8.42362728,6.83377585 8.42362728,6.31291746 L8.42362728,5.29207298 Z M5.05749696,5.29207298 C5.05749696,4.77097741 5.47778888,4.34949957 5.99698697,4.34949957 C6.51618506,4.34949957 6.93647698,4.77097741 6.93647698,5.29207298 L6.93647698,6.31291746 C6.93647698,6.83377585 6.51618506,7.25525369 5.99698697,7.25525369 C5.47778888,7.25525369 5.05749696,6.83377585 5.05749696,6.31291746 L5.05749696,5.29207298 Z" id="Shape" fill="#2B79C2"></path>
                    <path d="M0.107919201,12.3608992 L0.107919201,43.9330765 C0.107919201,45.7992485 1.62068549,47.3167585 3.4806907,47.3167585 L43.7098853,47.3167585 C45.5701277,47.3167585 47.0826568,45.7992485 47.0826568,43.9330765 L47.0826568,12.3608992 L0.107919201,12.3608992 Z M19.4415847,31.7557585 C19.8087472,32.1238697 19.8087472,32.7203901 19.4415847,33.0885013 C19.2582407,33.2725569 19.017735,33.3648219 18.7774666,33.3648219 C18.5369609,33.3648219 18.2966924,33.2725569 18.1131112,33.0885013 L14.126742,29.0890869 C13.9505135,28.912384 13.8516073,28.6730643 13.8516073,28.4228341 C13.8516073,28.1723666 13.9505135,27.9330469 14.126742,27.756344 L18.1131112,23.7578784 C18.4802737,23.3897672 19.0746594,23.3897672 19.4415847,23.7578784 C19.8087472,24.1259896 19.8087472,24.72251 19.4415847,25.0906212 L16.1195708,28.4228341 L19.4415847,31.7557585 Z M26.3906325,19.9434683 L22.6326725,37.302331 C22.5373241,37.7442068 22.1473918,38.0451946 21.7152407,38.0451946 C21.649066,38.0451946 21.5821798,38.0387906 21.5152937,38.0240851 C21.0077176,37.9135569 20.6858575,37.4109618 20.7959114,36.9029114 L24.5538714,19.5440487 C24.6639253,19.0350495 25.1677063,18.710106 25.6712502,18.8225317 C26.1788262,18.9328228 26.5006864,19.4354179 26.3906325,19.9434683 Z M33.0588532,29.0890869 L29.0734327,33.0885013 C28.8898514,33.2725569 28.649583,33.3648219 28.4090773,33.3648219 C28.1688089,33.3648219 27.9283032,33.2725569 27.7449592,33.0885013 C27.3777967,32.7203901 27.3777967,32.1238697 27.7449592,31.7557585 L31.0660243,28.4228341 L27.7449592,25.0906212 C27.3777967,24.72251 27.3777967,24.1259896 27.7449592,23.7578784 C28.1118844,23.3897672 28.7062702,23.3897672 29.0734327,23.7578784 L33.0588532,27.756344 C33.4257785,28.1244553 33.4257785,28.7209757 33.0588532,29.0890869 Z" id="Shape" fill="#3B4651"></path>
                </g>
                <g id="Group" opacity="0.05" transform="translate(82.540400, 0.371851)" fill-rule="nonzero">
                    <path d="M47.1132537,10.324879 L47.1132537,3.41295065 C47.1132537,1.55617116 45.6007246,0.0386848827 43.7404822,0.0386848827 L3.51128758,0.0386848827 C1.65104518,0.0386848827 0.138516073,1.55617116 0.138516073,3.41295065 L0.138516073,10.324879 L47.1132537,10.324879 Z M24.7587993,4.70826568 L41.219205,4.70826568 C41.7384031,4.70826568 42.158695,5.1298384 42.158695,5.65081538 C42.158695,6.17179235 41.7384031,6.59336507 41.219205,6.59336507 L24.7587993,6.59336507 C24.239364,6.59336507 23.8193093,6.17179235 23.8193093,5.65081538 C23.8193093,5.1298384 24.239364,4.70826568 24.7587993,4.70826568 Z M11.8215404,5.14086751 C11.8215404,4.61989053 12.2415951,4.19834153 12.7610304,4.19834153 C13.2802285,4.19834153 13.7005204,4.61989053 13.7005204,5.14086751 L13.7005204,6.16166455 C13.7005204,6.68264153 13.2802285,7.10421425 12.7610304,7.10421425 C12.2415951,7.10421425 11.8215404,6.68264153 11.8215404,6.16166455 L11.8215404,5.14086751 Z M8.45422415,5.14086751 C8.45422415,4.61989053 8.87451607,4.19834153 9.39371416,4.19834153 C9.91314944,4.19834153 10.3332042,4.61989053 10.3332042,5.14086751 L10.3332042,6.16166455 C10.3332042,6.68264153 9.91314944,7.10421425 9.39371416,7.10421425 C8.87451607,7.10421425 8.45422415,6.68264153 8.45422415,6.16166455 L8.45422415,5.14086751 Z M5.08809383,5.14086751 C5.08809383,4.61989053 5.50838575,4.19834153 6.02758384,4.19834153 C6.54678193,4.19834153 6.96707385,4.61989053 6.96707385,5.14086751 L6.96707385,6.16166455 C6.96707385,6.68264153 6.54678193,7.10421425 6.02758384,7.10421425 C5.50838575,7.10421425 5.08809383,6.68264153 5.08809383,6.16166455 L5.08809383,5.14086751 Z" id="Shape" fill="#2B79C2"></path>
                    <path d="M0.138516073,12.2098123 L0.138516073,43.7819896 C0.138516073,45.6481616 1.65104518,47.1656716 3.51128758,47.1656716 L43.7404822,47.1656716 C45.6007246,47.1656716 47.1132537,45.6481616 47.1132537,43.7819896 L47.1132537,12.2098123 L0.138516073,12.2098123 Z M19.4721816,31.6046716 C19.839344,31.9727828 19.839344,32.5693032 19.4721816,32.9374144 C19.2888375,33.12147 19.0483319,33.2134978 18.8080634,33.2134978 C18.5675578,33.2134978 18.3272893,33.12147 18.1437081,32.9374144 L14.1573388,28.938 C13.9811103,28.7612971 13.881967,28.5219774 13.881967,28.2717472 C13.881967,28.0212798 13.9811103,27.78196 14.1573388,27.6052572 L18.1437081,23.6067915 C18.5106334,23.2386803 19.1052563,23.2386803 19.4721816,23.6067915 C19.839344,23.9749027 19.839344,24.5714231 19.4721816,24.9395343 L16.1501677,28.2717472 L19.4721816,31.6046716 Z M26.4212294,19.7923814 L22.6632693,37.1512441 C22.5679209,37.5931199 22.1779887,37.8941077 21.7458375,37.8941077 C21.6796629,37.8941077 21.6127767,37.8877037 21.5456533,37.8729983 C21.0383145,37.76247 20.7164544,37.2598749 20.8265083,36.7518245 L24.5844683,19.3929618 C24.6945222,18.8839626 25.1983032,18.5590191 25.7018471,18.6712076 C26.2091859,18.7817359 26.5312832,19.284331 26.4212294,19.7923814 Z M33.08945,28.938 L29.1040295,32.9374144 C28.9204483,33.12147 28.6799427,33.2134978 28.4396742,33.2134978 C28.1994057,33.2134978 27.9589001,33.12147 27.7753189,32.9374144 C27.4083936,32.5693032 27.4083936,31.9727828 27.7753189,31.6046716 L31.0966212,28.2717472 L27.7753189,24.9395343 C27.4083936,24.5714231 27.4083936,23.9749027 27.7753189,23.6067915 C28.1424813,23.2386803 28.7368671,23.2386803 29.1040295,23.6067915 L33.08945,27.6052572 C33.4563753,27.9733684 33.4563753,28.5698888 33.08945,28.938 Z" id="Shape" fill="#3B4651"></path>
                </g>
                <rect id="Rectangle" fill="#1C2858" fill-rule="nonzero" x="161.174599" y="58.1290209" width="121.553546" height="74.4654344" rx="8"></rect>
                <circle id="Oval" fill="#575EA7" fill-rule="nonzero" cx="178.975337" cy="69.728556" r="1"></circle>
                <circle id="Oval" fill="#575EA7" fill-rule="nonzero" cx="178.975337" cy="74.7004292" r="1"></circle>
                <circle id="Oval" fill="#575EA7" fill-rule="nonzero" cx="178.975337" cy="79.8622876" r="1"></circle>
                <circle id="Oval" fill="#575EA7" fill-rule="nonzero" cx="178.975337" cy="84.6351625" r="1"></circle>
                <circle id="Oval" fill="#575EA7" fill-rule="nonzero" cx="178.975337" cy="89.6041894" r="1"></circle>
                <circle id="Oval" fill="#575EA7" fill-rule="nonzero" cx="178.975337" cy="94.4842719" r="1"></circle>
                <circle id="Oval" fill="#575EA7" fill-rule="nonzero" cx="178.975337" cy="99.5417689" r="1"></circle>
                <circle id="Oval" fill="#575EA7" fill-rule="nonzero" cx="178.975337" cy="104.510559" r="1"></circle>
                <circle id="Oval" fill="#575EA7" fill-rule="nonzero" cx="178.975337" cy="109.479586" r="1"></circle>
                <rect id="Rectangle" fill="#575EA7" fill-rule="nonzero" x="165.009881" y="68.1496151" width="12.5621982" height="44.0910417" rx="2"></rect>
                <rect id="Rectangle" fill="#1C2858" fill-rule="nonzero" x="170.037018" y="71.8544457" width="5.18242233" height="1" rx="0.5"></rect>
                <rect id="Rectangle" fill="#1C2858" fill-rule="nonzero" x="170.037018" y="84.1017333" width="5.18242233" height="1" rx="0.5"></rect>
                <rect id="Rectangle" fill="#1C2858" fill-rule="nonzero" x="171.290067" y="74.8387081" width="5.08880539" height="1" rx="0.5"></rect>
                <rect id="Rectangle" fill="#1C2858" fill-rule="nonzero" x="171.290067" y="80.1834361" width="5.08880539" height="1" rx="0.5"></rect>
                <rect id="Rectangle" fill="#1C2858" fill-rule="nonzero" x="171.290067" y="87.5755456" width="5.08880539" height="1" rx="0.5"></rect>
                <rect id="Rectangle" fill="#1C2858" fill-rule="nonzero" x="171.290067" y="90.4288818" width="5.08880539" height="1" rx="0.5"></rect>
                <rect id="Rectangle" fill="#1C2858" fill-rule="nonzero" x="171.290067" y="77.6351199" width="5.08880539" height="1" rx="0.5"></rect>
                <path d="M167.301326,71.0997228 L168.875286,71.0997228 C168.917979,71.0997228 168.958775,71.116563 168.988897,71.1466855 C169.01902,71.176808 169.03586,71.2176038 169.03586,71.2602971 L169.03586,72.8155195 C169.03586,72.8582129 169.01902,72.8990087 168.988897,72.9291312 C168.958775,72.9592537 168.917979,72.976331 168.875286,72.976331 L166.363733,72.976331 C166.32104,72.976331 166.280244,72.9592537 166.250122,72.9291312 C166.219999,72.8990087 166.202922,72.8582129 166.202922,72.8155195 L166.202922,70.893609 C166.202922,70.8509157 166.219999,70.8101199 166.250122,70.7799974 C166.280244,70.7498749 166.32104,70.7327976 166.363733,70.7327976 L167.107783,70.7327976 L167.301326,71.0997228 Z" id="Path" fill="#1C2858" fill-rule="nonzero"></path>
                <path d="M167.301326,83.3467732 L168.875286,83.3467732 C168.917979,83.3467732 168.958775,83.3636134 168.988897,83.3937359 C169.01902,83.4238584 169.03586,83.4646542 169.03586,83.5073475 L169.03586,85.0625699 C169.03586,85.1052632 169.01902,85.1460591 168.988897,85.1761816 C168.958775,85.2063041 168.917979,85.2231442 168.875286,85.2231442 L166.363733,85.2231442 C166.32104,85.2231442 166.280244,85.2063041 166.250122,85.1761816 C166.219999,85.1460591 166.202922,85.1052632 166.202922,85.0625699 L166.202922,83.1404222 C166.202922,83.0979661 166.219999,83.0571703 166.250122,83.0270478 C166.280244,82.9969253 166.32104,82.979848 166.363733,82.979848 L167.107783,82.979848 L167.301326,83.3467732 Z" id="Path" fill="#1C2858" fill-rule="nonzero"></path>
                <path d="M170.35034,77.7330773 L169.676971,77.0597089 L169.099663,77.0597089 C169.023289,77.0597089 168.949762,77.0900686 168.895684,77.1441468 C168.841606,77.198225 168.811246,77.2717524 168.811246,77.348126 L168.811246,78.6948627 C168.811246,78.7714735 168.841606,78.8447637 168.895684,78.8990791 C168.949762,78.9531573 169.023289,78.9835169 169.099663,78.9835169 L170.061685,78.9835169 C170.138296,78.9835169 170.211586,78.9531573 170.265665,78.8990791 C170.319743,78.8447637 170.35034,78.7714735 170.35034,78.6948627 L170.35034,77.7330773 Z" id="Path" fill="#1C2858" fill-rule="nonzero"></path>
                <path d="M170.350103,77.7330773 L169.869328,77.7330773 C169.818334,77.7330773 169.769236,77.7126794 169.733184,77.6766273 C169.697132,77.6405752 169.676971,77.591715 169.676971,77.5407202 L169.676971,77.0597089 L170.350103,77.7330773 Z" id="Path" fill="#6563FF" fill-rule="nonzero"></path>
                <path d="M170.35034,74.9625187 L169.676971,74.2893875 L169.099663,74.2893875 C169.023289,74.2893875 168.949762,74.3197472 168.895684,74.3738254 C168.841606,74.4279036 168.811246,74.5014309 168.811246,74.5778045 L168.811246,75.9245413 C168.811246,76.001152 168.841606,76.0744422 168.895684,76.1285204 C168.949762,76.1828358 169.023289,76.2131955 169.099663,76.2131955 L170.061685,76.2131955 C170.138296,76.2131955 170.211586,76.1828358 170.265665,76.1285204 C170.319743,76.0744422 170.35034,76.001152 170.35034,75.9245413 L170.35034,74.9625187 Z" id="Path" fill="#1C2858" fill-rule="nonzero"></path>
                <path d="M170.350103,74.9625187 L169.869328,74.9625187 C169.818334,74.9625187 169.769236,74.9423579 169.733184,74.9063058 C169.697132,74.8702537 169.676971,74.8211564 169.676971,74.7701616 L169.676971,74.2893875 L170.350103,74.9625187 Z" id="Path" fill="#6563FF" fill-rule="nonzero"></path>
                <g id="Group" transform="translate(168.638575, 79.591659)" fill-rule="nonzero">
                    <path d="M1.71176455,0.688785404 L1.03839618,0.0154170287 L0.46108775,0.0154170287 C0.384714162,0.0154170287 0.311186794,0.046013901 0.257108601,0.100092094 C0.203030408,0.154170287 0.172670721,0.227460469 0.172670721,0.304071242 L0.172670721,1.65080799 C0.172670721,1.72741877 0.203030408,1.80070895 0.257108601,1.85478714 C0.311186794,1.90910252 0.384714162,1.93946221 0.46108775,1.93946221 L1.42311034,1.93946221 C1.49972111,1.93946221 1.57301129,1.90910252 1.62708949,1.85478714 C1.68116768,1.80070895 1.71176455,1.72741877 1.71176455,1.65080799 L1.71176455,0.688785404 Z" id="Path" fill="#1C2858"></path>
                    <path d="M1.71152737,0.688785404 L1.23075326,0.688785404 C1.17975847,0.688785404 1.13066116,0.668624674 1.09460904,0.632572546 C1.05855691,0.596520417 1.03839618,0.54742311 1.03839618,0.496428323 L1.03839618,0.0154170287 L1.71152737,0.688785404 Z" id="Path" fill="#6563FF"></path>
                </g>
                <g id="Group" transform="translate(168.638575, 86.944396)" fill-rule="nonzero">
                    <path d="M1.71176455,0.67218245 L1.03839618,-0.00118592528 L0.46108775,-0.00118592528 C0.384714162,-0.00118592528 0.311186794,0.0291737619 0.257108601,0.0832519548 C0.203030408,0.137330148 0.172670721,0.210857515 0.172670721,0.287231103 L0.172670721,1.63396785 C0.172670721,1.71057863 0.203030408,1.78386881 0.257108601,1.83818419 C0.311186794,1.89226238 0.384714162,1.92262207 0.46108775,1.92262207 L1.42311034,1.92262207 C1.49972111,1.92262207 1.57301129,1.89226238 1.62708949,1.83818419 C1.68116768,1.78386881 1.71176455,1.71057863 1.71176455,1.63396785 L1.71176455,0.67218245 Z" id="Path" fill="#1C2858"></path>
                    <path d="M1.71152737,0.67218245 L1.23075326,0.67218245 C1.17975847,0.67218245 1.13066116,0.651784535 1.09460904,0.615732407 C1.05855691,0.579680278 1.03839618,0.530820156 1.03839618,0.479588184 L1.03839618,-0.00118592528 L1.71152737,0.67218245 Z" id="Path" fill="#6563FF"></path>
                </g>
                <g id="Group" transform="translate(168.638575, 89.790617)" fill-rule="nonzero">
                    <path d="M1.71176455,0.679298002 L1.03839618,0.00592962641 L0.46108775,0.00592962641 C0.384714162,0.00592962641 0.311186794,0.0362893136 0.257108601,0.0903675065 C0.203030408,0.144445699 0.172670721,0.217973067 0.172670721,0.29458384 L0.172670721,1.64132059 C0.172670721,1.71769418 0.203030408,1.79122155 0.257108601,1.84529974 C0.311186794,1.89937793 0.384714162,1.92973762 0.46108775,1.92973762 L1.42311034,1.92973762 C1.49972111,1.92973762 1.57301129,1.89937793 1.62708949,1.84529974 C1.68116768,1.79122155 1.71176455,1.71769418 1.71176455,1.64132059 L1.71176455,0.679298002 Z" id="Path" fill="#1C2858"></path>
                    <path d="M1.71152737,0.679298002 L1.23075326,0.679298002 C1.17975847,0.679298002 1.13066116,0.658900087 1.09460904,0.622847958 C1.05855691,0.58679583 1.03839618,0.537935708 1.03839618,0.486940921 L1.03839618,0.00592962641 L1.71152737,0.679298002 Z" id="Path" fill="#6563FF"></path>
                </g>
                <rect id="Rectangle" fill="#575EA7" fill-rule="nonzero" x="165.009881" y="113.460737" width="83.0807072" height="16.0679831" rx="2"></rect>
                <path d="M173.445368,119.802591 C173.445368,118.75447 174.294727,117.90511 175.342848,117.90511 L233.75038,117.90511 C234.798263,117.90511 235.64786,118.75447 235.64786,119.802591 L235.64786,129.528601 L173.445368,129.528601 L173.445368,119.802591 Z" id="Path" fill="#FFFFFF" fill-rule="nonzero"></path>
                <rect id="Rectangle" fill="#575EA7" fill-rule="nonzero" x="165.009881" y="60.6192268" width="114.741829" height="4.36083701" rx="2.18041851"></rect>
                <rect id="Rectangle" fill="#FFFFFF" fill-rule="nonzero" x="180.851234" y="73.7099444" width="9.70233936" height="1.75686055" rx="0.878430274"></rect>
                <rect id="Rectangle" fill="#F48A8A" fill-rule="nonzero" x="192.415191" y="73.7099444" width="6.67063997" height="1.75686055" rx="0.878430274"></rect>
                <rect id="Rectangle" fill="#53C88D" fill-rule="nonzero" x="201.392171" y="73.7099444" width="34.255689" height="1.75686055" rx="0.878430274"></rect>
                <rect id="Rectangle" fill="#FFFFFF" fill-rule="nonzero" x="180.851234" y="68.7406803" width="19.8542393" height="1.75686055" rx="0.878430274"></rect>
                <rect id="Rectangle" fill="#575EA7" fill-rule="nonzero" x="202.704516" y="68.7406803" width="34.255689" height="1.75686055" rx="0.878430274"></rect>
                <rect id="Rectangle" fill="#575EA7" fill-rule="nonzero" x="184.097823" y="78.678497" width="22.7810317" height="1.75686055" rx="0.878430274"></rect>
                <rect id="Rectangle" fill="#FFFFFF" fill-rule="nonzero" x="209.382461" y="78.678497" width="10.0615087" height="1.75686055" rx="0.878430274"></rect>
                <rect id="Rectangle" fill="#F1F5F5" fill-rule="nonzero" x="184.245115" y="83.6475239" width="14.0656431" height="1.75686055" rx="0.878430274"></rect>
                <rect id="Rectangle" fill="#FFFFFF" fill-rule="nonzero" x="184.245115" y="88.6160765" width="15.5315891" height="1.75686055" rx="0.878430274"></rect>
                <rect id="Rectangle" fill="#53C88D" fill-rule="nonzero" x="201.392171" y="88.6160765" width="20.5591058" height="1.75686055" rx="0.878430274"></rect>
                <rect id="Rectangle" fill="#C17AFC" fill-rule="nonzero" x="180.851234" y="93.5851034" width="26.0275022" height="1.75686055" rx="0.878430274"></rect>
                <rect id="Rectangle" fill="#F09799" fill-rule="nonzero" x="209.811292" y="93.5851034" width="18.1313982" height="1.75686055" rx="0.878430274"></rect>
                <rect id="Rectangle" fill="#FFFFFF" fill-rule="nonzero" x="180.851234" y="98.5538931" width="15.1353477" height="1.75686055" rx="0.878430274"></rect>
                <rect id="Rectangle" fill="#575EA7" fill-rule="nonzero" x="197.285549" y="98.5538931" width="37.3872433" height="1.75686055" rx="0.878430274"></rect>
                <rect id="Rectangle" fill="#DD888C" fill-rule="nonzero" x="194.465893" y="103.522683" width="14.9167105" height="1.75686055" rx="0.878430274"></rect>
                <rect id="Rectangle" fill="#EEE894" fill-rule="nonzero" x="211.144509" y="103.522683" width="26.3804335" height="1.75686055" rx="0.878430274"></rect>
                <rect id="Rectangle" fill="#FFFFFF" fill-rule="nonzero" x="186.166788" y="103.522683" width="6.00211017" height="1.75686055" rx="0.878430274"></rect>
                <rect id="Rectangle" fill="#FFFFFF" fill-rule="nonzero" x="186.16323" y="108.491947" width="17.8390439" height="1.75686055" rx="0.878430274"></rect>
                <rect id="Rectangle" fill="#F1F2F6" fill-rule="nonzero" x="206.311626" y="108.491947" width="17.8390439" height="1.75686055" rx="0.878430274"></rect>
                <rect id="Rectangle" fill="#F1F2F6" fill-rule="nonzero" x="227.942666" y="108.491947" width="9.58211025" height="1.75686055" rx="0.878430274"></rect>
                <rect id="Rectangle" fill="#575EA7" fill-rule="nonzero" x="250.512485" y="67.3820843" width="29.2396994" height="62.6317976" rx="2"></rect>
                <path d="M276.408349,72.4950825 C276.408349,71.6962433 275.758462,71.0442215 274.959149,71.0442215 C270.867706,71.0442215 259.295447,71.0442215 255.204005,71.0442215 C254.404692,71.0442215 253.752433,71.6962433 253.752433,72.4950825 L253.752433,83.9537298 C253.752433,84.7523319 254.404692,85.4043536 255.204005,85.4043536 L274.959149,85.4043536 C275.758462,85.4043536 276.408349,84.7523319 276.408349,83.9537298 C276.408349,81.1990626 276.408349,75.2497498 276.408349,72.4950825 Z" id="Path" fill="#D9DAEC" fill-rule="nonzero"></path>
                <g id="Clipped" transform="translate(253.550825, 70.815812)">
                    <mask id="mask-5" fill="white">
                        <use xlink:href="#path-4"></use>
                    </mask>
                    <g id="Path"></g>
                </g>
                <g id="Clipped" transform="translate(253.550825, 70.815812)">
                    <mask id="mask-7" fill="white">
                        <use xlink:href="#path-6"></use>
                    </mask>
                    <g id="Path"></g>
                    <g id="Group" mask="url(#mask-7)" fill-rule="nonzero">
                        <g transform="translate(1.897480, 3.557776)" id="Path">
                            <path d="M6.66727194,7.88877498 C6.66727194,7.88877498 6.64355343,6.6964457 6.59611642,6.00694874 C6.56053866,5.30559253 6.65541268,5.16541616 5.872702,5.31745178 C5.08999131,5.46925022 4.49228497,5.04848393 4.79588184,3.50583232 C5.11133797,1.95132146 5.49794961,0.84105821 6.04821894,0.642297133 C6.58425717,0.443536056 9.55381407,3.24872372 9.55381407,3.24872372 L10.4290269,6.86010339 C10.4195395,6.83685925 8.15205039,9.72363858 6.66727194,7.88877498 Z" fill="#DF9E66"></path>
                            <path d="M5.6616073,5.3409331 C5.91776716,5.27072632 7.158245,4.90830756 7.58992181,4.25391399 C8.05717637,3.51745439 8.22083406,3.42400348 8.45564726,3.41238141 C8.68808862,3.40075934 9.8692702,5.5980417 10.1491486,6.03043006 C10.4290269,6.46281842 9.30714162,6.84848132 8.69994787,6.41609296 C8.14019114,6.00694874 7.08708949,5.70311468 6.59611642,5.74984014 C6.57239791,5.27072632 6.54867941,5.17727541 5.872702,5.30582971 C5.80154648,5.32907385 5.73039096,5.3409331 5.6616073,5.3409331 Z" fill="#D98951"></path>
                            <path d="M6.67913119,7.40966116 C6.72419635,7.44476455 6.84278888,7.76022068 7.41440487,7.5614596 C8.04531712,7.36293571 8.94662033,6.00718593 10.2321633,6.18246568 C11.5058471,6.35774544 15.3268983,7.304351 15.7822937,8.63685665 C16.2495482,9.96912511 15.71351,10.7757915 15.7490877,11.3132528 C15.7822937,11.8625734 16.0858905,15.1352528 15.9578106,16.3975517 C15.8178714,17.6596134 15.490556,18.2324153 14.9426586,18.6297003 C14.9426586,18.6297003 15.3980539,20.2193145 15.5949175,21.0608471 C15.5949175,21.0608471 13.0024848,22.4165969 10.2653692,22.6853275 C7.86980017,22.919192 4.72709818,22.1478662 3.9775934,21.9374831 C3.25417897,23.503616 2.27223284,24.4385995 2.27223284,24.4385995 C0.436420504,24.1229062 0.0521807124,22.8608445 0.0521807124,22.8608445 C0.740017376,21.8907576 2.9505821,18.0687576 3.33482189,16.7364891 C3.70957428,15.3923614 4.1886881,11.9092989 4.38792354,10.9977967 C4.58715899,10.0860573 4.84331885,8.70706342 5.32243267,8.26281581 C5.81340573,7.84204952 6.67913119,7.40966116 6.67913119,7.40966116 Z" fill="#9396A4"></path>
                            <path d="M4.91447437,8.99903823 C5.0425543,8.87048393 5.21807124,8.76517376 5.4505126,8.81189922 C5.94148566,8.90535013 5.4742311,9.66505387 5.18249348,10.5065864 C4.89075586,11.348119 4.92396177,11.8623362 5.36986968,13.2999149 C5.82526499,14.7493527 5.95334492,16.0699991 4.98325804,18.3023849 C4.78402259,18.7463953 4.6203649,19.1790209 4.48042572,19.59955 C4.25984361,19.6581347 3.93252824,19.7515856 3.89695048,19.798311 C3.82579496,19.8685178 3.80207646,20.0672789 3.80207646,20.0672789 L3.51033884,21.7735882 L3.87323197,21.843795 C3.83765421,22.0423189 3.80207646,22.2175986 3.7807298,22.3580122 C3.09052129,23.6786586 2.28409209,24.4618436 2.28409209,24.4618436 C0.448279757,24.1461503 0.0640399652,22.8838514 0.0640399652,22.8838514 C0.751876629,21.9137646 2.96244136,18.0920017 3.34668115,16.7594961 C3.72143354,15.4153684 4.20054735,11.932543 4.3997828,11.0208036 C4.52786273,10.4131355 4.67966116,9.59508427 4.91447437,8.99903823 Z" fill="#7C829E"></path>
                            <path d="M4.70337967,22.0776594 C4.70337967,22.0776594 5.97706342,22.0658002 6.81907037,21.8905204 C7.66107732,21.7036186 7.86980017,20.1723519 9.74119027,19.3777819 C11.6102085,18.5829748 14.0887924,17.8465152 14.3093745,14.5505917 C14.5323284,11.2546681 13.6215378,9.15107385 13.0831277,8.64847871 C12.5447176,8.14588358 11.633927,8.68334492 11.9138054,9.95750304 C12.1960556,11.231424 12.6277324,14.7609748 11.8805995,16.4324179 C11.3991138,17.519437 7.55434405,18.5829748 5.96520417,19.0737107 C4.65594266,19.4828549 3.90880973,19.786689 3.90880973,19.786689 C3.90880973,19.786689 3.83765421,19.8334144 3.81393571,19.9970721 C3.74515204,20.4178384 3.62893136,21.3295778 4.70337967,22.0776594 Z" fill="#7C829E"></path>
                            <path d="M8.68571677,5.43485838 C8.77821894,4.99464292 9.20752389,4.65357081 9.77202433,4.00866464 C10.4408862,3.23994787 10.4527454,1.73927802 9.33797567,0.840346655 C8.28250217,-0.00308340573 6.68861859,-0.0403214596 5.88930495,0.52394179 C5.88930495,0.530108601 5.88456125,0.536512598 5.88456125,0.542679409 C5.82052129,0.902251955 6.14309296,1.03246655 6.5154735,1.03863336 C6.88785404,1.04480017 6.9186881,1.33630061 6.88785404,1.85099218 C6.85701998,2.36568375 6.99933102,2.41525543 7.5567159,2.4586603 C8.10935708,2.49589835 8.51257168,2.97335187 8.30859253,3.43823458 C8.10224153,3.90335447 7.63261512,3.99633102 7.63261512,3.99633102 C7.7867854,4.85826151 8.3821199,5.27997654 8.68571677,5.43485838 Z" fill="#1C223C"></path>
                        </g>
                    </g>
                </g>
                <rect id="Rectangle" fill="#D9DAEC" fill-rule="nonzero" x="252.891451" y="88.7484257" width="24.4827159" height="37.6524162" rx="2"></rect>
                <path d="M148.603079,98.9269852 C148.629407,98.9269852 148.471204,98.0052841 148.655497,98.0845039 C149.892891,98.5057446 152.394482,100.927878 153.342274,104.324368 C154.500923,108.537012 150.261714,113.881977 151.762621,117.936656 C153.263291,121.991334 159.792996,125.940703 147.813253,135.313782 C142.810546,139.210495 140.83598,134.866214 140.283102,128.178781 C142.62649,129.021262 144.600818,129.36352 144.600818,129.36352 C144.600818,129.36352 145.311899,126.756857 145.048624,125.203532 C144.811676,123.64997 143.020929,120.280044 145.127369,118.910775 C147.233573,117.541743 150.419679,115.882871 150.841157,111.064693 C151.262398,106.246516 148.761044,99.1902606 148.761044,99.1902606 L148.603079,98.9269852 Z" id="Path" fill="#1C18A4" fill-rule="nonzero"></path>
                <path d="M148.734717,99.1902606 C148.734717,99.1902606 151.23607,106.246516 150.81483,111.064693 C150.393589,115.882871 147.207482,117.515415 145.101042,118.910775 C142.994838,120.279807 144.785348,123.64997 145.022296,125.203532 C145.285572,126.756857 144.574491,129.36352 144.574491,129.36352 C144.574491,129.36352 133.121536,127.336063 132.937243,121.306818 C132.779278,115.277337 132.568421,108.56334 133.489884,107.036342 C134.385258,105.456453 143.389752,96.7942172 148.734717,99.1902606 Z" id="Path" fill="#FF9647" fill-rule="nonzero"></path>
                <path d="M144.100832,120.727613 C142.731563,120.75394 139.729986,121.017215 138.202989,122.912798 C136.149203,125.44048 133.358247,122.46523 133.489884,120.727613 C133.64785,118.989758 137.228395,114.540166 137.228395,114.540166 C137.228395,114.540166 137.597455,113.329099 138.045023,113.75034 C138.439937,114.118925 142.283995,119.358343 145.575175,118.594844 C145.417209,118.700155 145.259007,118.805465 145.101042,118.884447 C144.416288,119.332016 144.12716,119.990204 144.100832,120.727613 Z" id="Path" fill="#F9723B" fill-rule="nonzero"></path>
                <path d="M133.674177,171.12161 C133.674177,171.12161 140.414977,172.280022 144.232707,170.989972 C144.232707,170.989972 141.731354,158.273058 144.232707,147.662348 C146.760388,137.051637 144.232707,125.96703 144.232707,125.96703 C144.232707,125.96703 143.600372,128.389401 140.914725,126.256633 C138.255644,124.124103 128.461324,153.665501 128.461324,153.665501 L133.674177,171.12161 Z" id="Path" fill="#FFFFFF" fill-rule="nonzero"></path>
                <path d="M120.74688,135.94588 C120.43095,134.497628 120.141584,133.075941 119.904636,131.733236 C117.956161,121.280491 134.912283,120.938233 134.912283,120.938233 C134.912283,120.938233 138.966487,123.070764 141.309876,123.018109 C141.309876,123.018109 141.283785,126.625219 140.862545,129.1529 C140.414977,131.680581 138.440411,139.078858 138.440411,139.078858 L138.413609,139.105422 C138.255644,139.421353 135.886402,144.660771 136.728884,151.269458 C137.334654,156.166618 137.755658,159.247177 137.83464,161.116433 L137.860731,161.300963 C138.071588,164.908073 135.83351,169.041734 135.596562,170.832007 C135.359614,172.622517 136.123113,176.940471 137.33418,178.362158 C137.33418,178.362158 116.086905,184.944518 105.291902,171.964091 C105.291902,171.964091 104.712459,161.063778 111.110526,153.559954 C116.850167,146.819866 120.378295,142.73886 120.74688,135.94588 Z M144.864331,134.734576 C145.022296,132.33877 144.706603,130.127019 143.758574,128.231436 C141.784009,124.282068 144.33778,122.544213 144.33778,122.544213 L144.52231,122.596868 C146.602423,123.149746 148.155511,124.834946 148.550424,126.967477 C149.261268,131.153793 150.604447,138.052083 152.000043,141.501228 C154.106247,146.635336 157.081496,151.638043 163.584873,153.691592 C163.584873,153.691592 164.927103,157.693852 162.241694,162.011806 C162.241694,162.011806 154.053592,163.275528 145.549321,162.591012 C146.181182,164.591905 146.891552,166.277105 147.365685,167.330207 C148.892682,170.621387 151.157088,176.940471 151.157088,176.940471 C144.601056,180.126103 143.864122,178.335831 141.863228,168.488619 C141.468315,166.619363 141.230893,164.749871 141.0466,162.906943 C140.967618,161.458691 140.520287,151.480078 142.83711,144.318513 C144.62762,138.552544 144.864331,135.787915 144.864331,134.734576 Z" id="Shape" fill="#02C1B6" fill-rule="nonzero"></path>
                <path d="M163.531269,153.638699 C163.531269,153.665027 163.531269,153.665027 163.531269,153.638699 C163.531269,153.665027 150.55108,153.428079 144.258323,150.479394 C144.258323,150.479394 144.179341,148.899505 145.601028,146.266513 C147.022952,143.633759 147.549503,139.552753 147.707468,135.234799 C147.707468,135.234799 148.892445,142.501675 150.287805,145.818945 C151.683401,149.136453 154.447556,153.717919 159.318626,151.611479 C160.529692,152.45396 161.925052,153.138476 163.531269,153.638699 Z" id="Path" fill="#0FA49B" fill-rule="nonzero"></path>
                <path d="M118.798405,179.467915 C113.901245,178.572778 108.977995,176.41392 105.291902,171.964091 C105.291902,171.964091 104.712459,161.063778 111.110526,153.559954 C116.850167,146.819866 120.378295,142.73886 120.74688,135.94588 C120.43095,134.497628 120.141584,133.075941 119.904636,131.733236 C117.956161,121.280491 134.912283,120.938233 134.912283,120.938233 C134.912283,120.938233 136.965831,122.017662 138.993289,122.623195 C134.622443,124.703308 135.965148,126.072341 135.596562,131.891202 C135.201649,137.815136 133.332394,141.922469 133.332394,141.922469 C133.332394,141.922469 135.228214,147.267434 136.860758,152.375215 C137.413637,156.640513 137.72933,159.378815 137.83464,161.090105 L137.860731,161.274398 C137.860731,161.327053 137.860731,161.379708 137.860731,161.458691 C135.7282,161.03745 131.910706,160.115986 128.329924,158.431023 C124.090952,156.403566 121.773891,160.879485 119.509486,168.989079 C118.272091,173.464998 118.429819,177.098436 118.798405,179.467915 Z" id="Path" fill="#18948D" fill-rule="nonzero"></path>
                <path d="M130.540963,131.890964 C130.540963,131.890964 134.06909,143.607432 140.308955,149.136453 C144.600581,151.716789 159.134333,153.822992 163.504942,153.638699 C163.504942,153.638699 164.979284,157.114172 162.214655,161.985242 C162.214655,161.985242 149.681797,164.328393 137.886347,161.274161 C126.117224,158.220166 121.720762,142.791278 119.745959,134.18146 C117.771394,125.598208 130.540963,131.890964 130.540963,131.890964 Z" id="Path" fill="#02C1B6" fill-rule="nonzero"></path>
                <path d="M162.63637,154.32369 L163.505653,153.639174 C163.505653,153.639174 164.585083,153.849794 165.980679,152.322797 C167.402367,150.769235 169.666535,151.717026 169.034674,155.060861 C169.034674,155.060861 175.248211,154.165725 178.039168,157.193629 C180.829887,160.221533 176.985829,163.064908 171.720083,162.82796 C166.480428,162.61734 164.427354,161.801186 162.136621,162.011806 C159.872215,162.248754 162.63637,154.32369 162.63637,154.32369 Z" id="Path" fill="#FF9647" fill-rule="nonzero"></path>
                <path d="M140.967855,161.959151 C139.940844,161.774858 138.913832,161.537673 137.887058,161.274398 C126.117699,158.220403 121.721236,142.791515 119.746434,134.181698 C117.798195,125.598445 130.567765,131.864874 130.567765,131.864874 C130.567765,131.864874 131.146733,133.760457 132.226162,136.367121 C131.199388,136.998982 129.804266,138.368014 129.751611,141.185298 C129.646301,145.7402 133.964255,149.636913 135.438597,154.297362 C136.518026,157.877908 138.018933,160.589882 140.967855,161.959151 Z" id="Path" fill="#0FA49B" fill-rule="nonzero"></path>
                <path d="M137.913386,113.64503 C137.808076,119.410998 136.069983,120.885341 133.542302,123.544659 C130.804238,126.467254 134.964464,130.258657 131.594539,134.023732 C128.250704,137.788808 117.771394,138.078411 114.770054,130.232329 C111.794805,122.386248 119.904162,121.227836 122.774101,118.384224 C125.617712,115.56694 117.139533,106.483464 124.406408,104.403351 C129.329896,102.981664 130.040977,102.534096 131.883904,97.2944405 C131.883904,97.2944405 132.963096,90.1328749 141.046126,90.7647359 C149.103065,91.3968341 151.025213,102.033872 145.732903,104.482334 C141.441276,106.483464 138.808522,105.245832 138.045023,108.537012 C138.045023,108.537012 134.780171,108.089444 134.542986,110.643453 C134.332366,113.170897 136.202096,113.618702 137.913386,113.64503 Z" id="Path" fill="#1C18A4" fill-rule="nonzero"></path>
                <path d="M111.557619,173.438434 C111.557619,173.438434 114.559434,177.967008 128.092501,176.940234 C129.356223,176.861251 130.382997,175.91346 130.619945,174.675828 C132.331473,165.092129 133.384574,162.669758 129.593171,162.85405 C125.485838,163.064671 118.324509,164.22332 118.324509,164.22332 C118.324509,164.22332 118.140216,168.699239 114.375141,168.304326 L111.557619,173.438434 Z" id="Path" fill="#327E79" fill-rule="nonzero"></path>
                <path d="M146.075635,164.22332 C146.549531,165.487279 146.996862,166.566708 147.33912,167.303879 C148.207929,169.147044 149.287595,171.937764 150.077421,174.044204 C149.392905,174.254825 148.471441,174.41279 147.41834,174.439117 C145.654157,172.095966 144.258798,164.381522 144.258798,164.381522 L146.075635,164.22332 Z" id="Path" fill="#327E79" fill-rule="nonzero"></path>
                <g id="Group-19" transform="translate(106.000000, 4.000000)" fill-rule="nonzero">
                    <g id="Group-18" transform="translate(194.731708, 51.618265)">
                        <path d="M24.9451907,-3.55271368e-15 L7.16687577,-3.55271368e-15 C3.23091021,-3.55271368e-15 3.41060513e-13,3.19720049 3.41060513e-13,7.16735055 L3.41060513e-13,19.6399459 C3.41060513e-13,23.6100959 3.19767528,26.8072964 7.16687577,26.8072964 L8.85236162,26.8072964 L8.85236162,32.2882116 C8.85236162,33.1665633 9.90638376,33.6233063 10.5758303,33.0260271 L17.215695,26.8072964 L24.9095818,26.8072964 C28.8787823,26.8072964 32.0767489,23.6100959 32.0767489,19.6399459 L32.0767489,7.16735055 C32.1120664,3.19720049 28.8787823,-3.55271368e-15 24.9451907,-3.55271368e-15 Z" id="Path" fill="#F7DF1E"></path>
                        <g id="Group" transform="translate(4.933014, 1.977241)">
                            <polygon id="Path" fill="#F7DF1E" points="0.142435424 0.202733087 22.10123 0.202733087 22.10123 22.29969 0.142435424 22.29969"></polygon>
                            <path d="M4.34902829,14.5906101 L6.0297663,13.5672116 C6.35261993,14.1454994 6.64698647,14.6350025 7.35441574,14.6350025 C8.03335793,14.6350025 8.46066421,14.3681734 8.46066421,13.3298192 L8.46066421,6.2692952 L10.5236039,6.2692952 L10.5236039,13.3592558 C10.5236039,15.5100308 9.27254613,16.4890369 7.44462485,16.4890369 C5.79237392,16.4890369 4.83568266,15.6287269 4.34902829,14.5903727 L4.34902829,14.5906101 Z M11.6464699,14.367936 L13.3248339,13.3891673 C13.7687577,14.1160627 14.3432472,14.6499582 15.3592866,14.6499582 C16.2138991,14.6499582 16.7599016,14.2198032 16.7599016,13.6263223 C16.7599016,12.9143825 16.1996556,12.6622718 15.2572079,12.2470726 L14.7420664,12.0243985 C13.2512423,11.3867626 12.26369,10.5858007 12.26369,8.89485486 C12.26369,7.33732349 13.4435301,6.15059902 15.285695,6.15059902 C16.5984748,6.15059902 17.5409225,6.61042804 18.2198647,7.81187085 L16.6127183,8.85046248 C16.2590037,8.21258918 15.876802,7.96047847 15.285695,7.96047847 C14.6827183,7.96047847 14.2981427,8.34600369 14.2981427,8.85046248 C14.2981427,9.47338007 14.6827183,9.72549077 15.565818,10.1112534 L16.0809594,10.33369 C17.8352891,11.0902595 18.8228413,11.8615474 18.8228413,13.5968856 C18.8228413,15.4658758 17.3652522,16.4892743 15.4043911,16.4892743 C13.4886347,16.4892743 12.2494465,15.5696162 11.6464699,14.3681734" id="Shape" fill="#000000"></path>
                        </g>
                    </g>
                    <g id="Group-15" transform="translate(0.000000, 27.371483)">
                        <path d="M7.54748009,-1.0658141e-14 L26.3596388,-1.0658141e-14 C30.523501,-1.0658141e-14 33.9438503,3.3588647 33.9438503,7.52984871 L33.9438503,20.6329582 C33.9438503,24.8039422 30.5605342,28.1628069 26.3596388,28.1628069 L24.5749229,28.1628069 L24.5749229,33.9207589 C24.5749229,34.8437405 23.4596535,35.3235105 22.7531738,34.6960824 L15.7265969,28.1628069 L7.5845133,28.1628069 C3.38338046,28.1628069 -1.0658141e-13,24.8039422 -1.0658141e-13,20.6329582 L-1.0658141e-13,7.52984871 C-0.0369688642,3.3588647 3.38338046,-1.0658141e-14 7.54748009,-1.0658141e-14 Z" id="Path" fill="#1C2858"></path>
                        <g id="Group" transform="translate(8.750822, 5.570887)">
                            <path d="M8.6819139,0.0970934809 C4.42689299,0.0163800738 4.65763838,1.8739754 4.65763838,1.8739754 L4.62606519,3.79353014 L8.68642435,3.87020787 L8.67550431,4.44659656 L3.00230135,4.33905781 C3.00230135,4.33905781 0.285583026,3.97750923 0.203920049,8.28784256 C0.122494465,12.5984133 2.50164084,12.4906371 2.50164084,12.4906371 L3.92006027,12.5174625 L3.95780566,10.5171943 C3.95780566,10.5171943 3.92646986,8.12973924 6.34146248,8.17555597 L10.3685867,8.25175892 C10.3685867,8.25175892 12.6304613,8.33128536 12.6727171,6.09908487 L12.7425105,2.40834563 C12.7425105,2.40834563 13.1285105,0.181130381 8.6819139,0.0970934809 Z M6.41861501,1.34530258 C6.51452153,1.34696433 6.60924108,1.36785486 6.69707626,1.40631242 C6.78514883,1.44476999 6.86467528,1.5003198 6.93114514,1.56963838 C6.9978524,1.63919434 7.05007872,1.72109471 7.0849754,1.81082903 C7.12010947,1.90032595 7.13696433,1.99623247 7.13506519,2.09261378 C7.13340344,2.18875769 7.11275031,2.28395203 7.07429274,2.37226199 C7.03607257,2.46057196 6.98076015,2.54033579 6.91144157,2.60728044 C6.84236039,2.6739877 6.76093481,2.72668881 6.67143788,2.76182288 C6.58217835,2.79695695 6.48674662,2.8140492 6.3908401,2.81215006 C6.29493358,2.81025092 6.20021402,2.78959779 6.11214145,2.75114022 C6.02430627,2.71268266 5.94477983,2.65713284 5.87807257,2.58757688 C5.81160271,2.5182583 5.75937638,2.43635793 5.72424231,2.34662362 C5.68934563,2.2568893 5.67225338,2.16122017 5.67415252,2.06483887 C5.67605166,1.96845756 5.6967048,1.87350062 5.73492497,1.78519065 C5.77338253,1.69688069 5.82869496,1.61687946 5.89777614,1.5501722 C5.96685732,1.48322755 6.0485203,1.43076384 6.13777983,1.39562977 C6.22727675,1.36049569 6.32270849,1.34340344 6.41861501,1.34530258 L6.41861501,1.34530258 Z" id="Shape" fill="#7CC4FC"></path>
                            <path d="M8.48606519,16.8396654 C12.7408487,16.9203788 12.5103407,15.0627835 12.5103407,15.0627835 L12.5419139,13.1432288 L8.48155474,13.066551 L8.49223739,12.4901624 L14.1654403,12.5977011 C14.1654403,12.5977011 16.8821587,12.9592497 16.9638216,8.64867897 C17.0454846,4.33834563 14.6661009,4.44612177 14.6661009,4.44612177 L13.2479188,4.41929643 L13.209936,6.41956458 C13.209936,6.41956458 13.2412718,8.80701968 10.8262792,8.76120295 L6.79915498,8.685 C6.79915498,8.685 4.53728044,8.60547355 4.4950246,10.837674 L4.42523124,14.5284133 C4.42523124,14.5284133 4.03923124,16.7556285 8.4858278,16.8396654 L8.48606519,16.8396654 Z M10.7493641,15.5914563 C10.6532202,15.5897946 10.558738,15.5691415 10.4706654,15.5306839 C10.3828303,15.4919889 10.3033038,15.4366765 10.2365966,15.3671205 C10.1701267,15.297802 10.1179004,15.2159016 10.0827663,15.1261673 C10.0478696,15.036433 10.0307774,14.9407638 10.0326765,14.8443825 C10.0343383,14.7480012 10.0549914,14.6530443 10.093449,14.5644969 C10.1319065,14.476187 10.1872189,14.3964231 10.2563001,14.3294785 C10.3253813,14.2627712 10.4070443,14.2103075 10.4963038,14.1751734 C10.5858007,14.1400394 10.6809951,14.1227097 10.777139,14.1246089 C10.8730455,14.126508 10.9677651,14.1471611 11.0556002,14.1856187 C11.1436728,14.2240763 11.2231993,14.2796261 11.2896691,14.349182 C11.356139,14.4185006 11.4086027,14.500401 11.4434994,14.5901353 C11.4783961,14.6798696 11.4954883,14.7755387 11.4935892,14.87192 C11.4919274,14.9683014 11.4712743,15.0632583 11.4328167,15.1515683 C11.3945966,15.2398782 11.3392841,15.3198795 11.2699656,15.3865867 C11.2008844,15.4535314 11.1192214,15.5059951 11.0299619,15.5411292 C10.9407023,15.5762632 10.8452706,15.5933555 10.7493641,15.5914563 L10.7493641,15.5914563 Z" id="Shape" fill="url(#linearGradient-8)"></path>
                        </g>
                    </g>
                    <g id="Group-17" transform="translate(136.898178, 0.000000)">
                        <path d="M26.3956581,-1.0658141e-14 L7.58231242,-1.0658141e-14 C3.41845018,-1.0658141e-14 -7.10542736e-14,3.3588647 -7.10542736e-14,7.52975375 L-7.10542736e-14,20.6331006 C-7.10542736e-14,24.8038472 3.38284133,28.1627119 7.58231242,28.1627119 L9.36750308,28.1627119 L9.36750308,33.9209014 C9.36750308,34.8436455 10.4832472,35.3234155 11.1883026,34.6959875 L18.2151169,28.1627119 L26.3576753,28.1627119 C30.5595203,28.1627119 33.9426749,24.8038472 33.9426749,20.6331006 L33.9426749,7.52975375 C33.9803444,3.3588647 30.5595203,-1.0658141e-14 26.3956581,-1.0658141e-14 Z" id="Path" fill="#E34F26"></path>
                        <g id="Group" transform="translate(8.166298, 4.930070)">
                            <polyline id="Path" fill="#E34F26" points="1.84691267 19.3201784 0.135313653 0.124725953 18.9557811 0.124725953 17.244182 19.3201784 9.52418204 21.4899446"></polyline>
                            <polyline id="Path" fill="#EF652A" points="9.56691267 19.8208389 15.7842189 18.109952 17.244182 1.668631 9.56691267 1.668631"></polyline>
                            <path d="M9.56691267,8.80440836 L6.43808118,8.80440836 L6.22917589,6.38419311 L9.56691267,6.38419311 L9.56691267,4.04730258 L3.64159902,4.04730258 L4.26831488,11.1828426 L9.56691267,11.1828426 L9.56691267,8.80440836 Z M9.52418204,14.9386273 L6.89624846,14.2290615 L6.7300738,12.3512878 L4.39175892,12.3512878 L4.68375154,16.0652915 L9.52418204,17.4006236 L9.52418204,14.9386273 Z" id="Shape" fill="#EBEBEB"></path>
                            <path d="M9.52418204,8.80440836 L9.52418204,11.1828426 L12.4464822,11.1828426 L12.1544895,14.2290615 L9.52418204,14.9386273 L9.52418204,17.4006236 L14.3646125,16.0652915 L15.034059,8.80440836 L9.52418204,8.80440836 Z M9.52418204,4.04730258 L9.52418204,6.38419311 L15.2429643,6.38419311 L15.4494957,4.04730258 L9.52418204,4.04730258 Z" id="Shape" fill="#FFFFFF"></path>
                        </g>
                    </g>
                    <g id="Group" transform="translate(69.098916, 3.505716)">
                        <path d="M6.91452768,0.193356089 L23.6100959,0.193356089 C27.305583,0.193356089 30.3413567,3.17441082 30.3413567,6.87607011 L30.3413567,18.5052103 C30.3413567,22.2068696 27.3385806,25.1878057 23.6100959,25.1878057 L22.0264514,25.1878057 L22.0264514,30.2979139 C22.0264514,31.1169176 21.0365252,31.5427995 20.409572,30.985877 L14.1735117,25.1878057 L6.94752522,25.1878057 C3.21904059,25.1878057 0.21623534,22.2068696 0.21623534,18.5052103 L0.21623534,6.87607011 C0.183504305,3.17441082 3.21904059,0.193356089 6.91452768,0.193356089 Z" id="Path" fill="#575EA7"></path>
                        <path d="M13.6154022,12.3064207 C13.6154022,12.3064207 13.1282731,12.5901046 13.9627073,12.6860111 C14.9737614,12.8013838 15.4905646,12.7847663 16.604647,12.5741993 C16.604647,12.5741993 16.898064,12.7577036 17.307091,12.9167565 C14.8090111,13.9869213 11.6535916,12.854797 13.6154022,12.3064207 Z M13.3098782,10.9096039 C13.3098782,10.9096039 12.763401,11.3145953 13.5985474,11.4007688 C14.6786827,11.5123432 15.5313961,11.5216015 17.0079766,11.2372054 C17.0079766,11.2372054 17.2116593,11.444449 17.5326138,11.5572103 C14.5129828,12.4405474 11.1496076,11.6267663 13.3098782,10.9096039 L13.3098782,10.9096039 Z" id="Shape" fill="#FFFFFF"></path>
                        <path d="M15.8832116,8.54019065 C16.4990074,9.24904428 15.7217847,9.8864428 15.7217847,9.8864428 C15.7217847,9.8864428 17.2845387,9.07978352 16.5669016,8.06920418 C15.8962681,7.12723124 15.382551,6.65933087 18.1650271,5.04577491 C18.1650271,5.04577491 13.7972448,6.13635547 15.8832116,8.54019065 Z" id="Path" fill="#FFFFFF"></path>
                        <path d="M19.1870012,13.3397897 C19.1870012,13.3397897 19.5478376,13.6372423 18.7896064,13.8672755 C17.3479225,14.3038401 12.788802,14.4355929 11.522551,13.8846052 C11.0677073,13.6866199 11.9211328,13.4117196 12.1896236,13.3540332 C12.4695092,13.2932608 12.6295117,13.3044182 12.6295117,13.3044182 C12.1233911,12.9478549 9.3572952,14.0047257 11.2246236,14.3076384 C16.3171648,15.1330517 20.507615,13.9358819 19.1870012,13.3397897 L19.1870012,13.3397897 Z M13.8499459,9.46222263 C13.8499459,9.46222263 11.5310972,10.0132103 13.0290431,10.2135695 C13.6616937,10.2980812 14.9217724,10.278615 16.0966273,10.1800972 C17.0564047,10.0996212 18.0197429,9.92727429 18.0197429,9.92727429 C18.0197429,9.92727429 17.6814588,10.072321 17.4364699,10.2394453 C15.0813001,10.858802 10.5323875,10.5703702 11.8420812,9.93700738 C12.9495166,9.40121279 13.8499459,9.46222263 13.8499459,9.46222263 L13.8499459,9.46222263 Z M18.0100098,11.7872435 C20.4038745,10.5435449 19.2969139,9.34827429 18.5244391,9.50922632 C18.3354748,9.54887085 18.2507257,9.58281796 18.2507257,9.58281796 C18.2507257,9.58281796 18.3212312,9.4724305 18.4551205,9.42518942 C19.98369,8.88797048 21.1587823,11.0100209 17.962294,11.8503899 C17.962294,11.8503899 17.9988524,11.817155 18.0100098,11.7872435 Z" id="Shape" fill="#FFFFFF"></path>
                        <path d="M16.567139,2.43920664 C16.567139,2.43920664 17.892738,3.76551784 15.3094342,5.80471833 C13.2379483,7.44082657 14.8370234,8.37330381 15.3084846,9.43943296 C14.0994453,8.34837761 13.21231,7.38765068 13.8074526,6.49386839 C14.6810566,5.18203813 17.1017466,4.54582657 16.567139,2.43920664 L16.567139,2.43920664 Z" id="Path" fill="#FFFFFF"></path>
                        <path d="M14.0856765,15.1584526 C16.3829225,15.3053985 19.9119975,15.0767897 19.9955597,13.98977 C19.9955597,13.98977 19.834845,14.4016458 18.0964207,14.7287724 C16.1353223,15.0979176 13.7160566,15.0549496 12.2817319,14.8182694 C12.2817319,14.8182694 12.5753862,15.0615966 14.0856765,15.1584526 L14.0856765,15.1584526 Z" id="Path" fill="#FFFFFF"></path>
                        <path d="M19.8894453,17.1083936 L19.8194145,17.1083936 L19.8194145,17.0692239 L20.0076667,17.0692239 L20.0076667,17.1083936 L19.9381107,17.1083936 L19.9381107,17.3037675 L19.8892079,17.3037675 L19.8894453,17.1083936 L19.8894453,17.1083936 Z M20.2654748,17.1181267 L20.2645252,17.1181267 L20.1952066,17.3037675 L20.1631587,17.3037675 L20.0940775,17.1181267 L20.0933653,17.1181267 L20.0933653,17.3037675 L20.0470738,17.3037675 L20.0470738,17.0692239 L20.114968,17.0692239 L20.1788266,17.2351611 L20.2429225,17.0692239 L20.3103419,17.0692239 L20.3103419,17.3037675 L20.2654748,17.3037675 L20.2654748,17.1181267 L20.2654748,17.1181267 Z M13.7089348,19.3125818 C13.492433,19.5003592 13.2633493,19.6059988 13.0575301,19.6059988 C12.7645879,19.6059988 12.6057724,19.430091 12.6057724,19.1483063 C12.6057724,18.8434945 12.7757454,18.6201082 13.4570615,18.6201082 L13.7089348,18.6201082 L13.7089348,19.3125818 L13.7089348,19.3125818 Z M14.3071636,19.9872509 L14.3071636,17.8986728 C14.3071636,17.3647774 14.0023518,17.0124871 13.2688093,17.0124871 C12.8407909,17.0124871 12.4652362,17.1183641 12.160187,17.253203 L12.2480221,17.6230603 C12.4882632,17.5347503 12.7992472,17.4528499 13.1042964,17.4528499 C13.5270923,17.4528499 13.7089348,17.6230603 13.7089348,17.9753506 L13.7089348,18.2393309 L13.4976556,18.2393309 C12.4706962,18.2393309 12.0073063,18.6376753 12.0073063,19.2368536 C12.0073063,19.7529446 12.3125929,20.0463616 12.8875572,20.0463616 C13.2569397,20.0463616 13.5332645,19.8937183 13.7908352,19.6703321 L13.8378389,19.9874883 L14.3071636,19.9874883 L14.3071636,19.9872509 L14.3071636,19.9872509 Z M16.3029213,19.9872509 L15.5570344,19.9872509 L14.6592165,17.0661378 L15.3108585,17.0661378 L15.8680185,18.8612989 L15.9919373,19.4006544 C16.2732472,18.6203456 16.4726568,17.8284047 16.5723616,17.0661378 L17.2059619,17.0661378 C17.0364637,18.0278143 16.7309397,19.0837355 16.3029213,19.9872509 Z M19.1646863,19.3125818 C18.9472349,19.5003592 18.7181513,19.6059988 18.5130443,19.6059988 C18.2198647,19.6059988 18.0610492,19.430091 18.0610492,19.1483063 C18.0610492,18.8434945 18.2314969,18.6201082 18.9121009,18.6201082 L19.164449,18.6201082 L19.164449,19.3125818 L19.1646863,19.3125818 Z M19.7631525,19.9872509 L19.7631525,17.8986728 C19.7631525,17.3647774 19.4576285,17.0124871 18.7245609,17.0124871 C18.2960677,17.0124871 17.9207503,17.1183641 17.6154637,17.253203 L17.7035363,17.6230603 C17.9440148,17.5347503 18.2552362,17.4528499 18.5602854,17.4528499 C18.9826064,17.4528499 19.1646863,17.6230603 19.1646863,17.9753506 L19.1646863,18.2393309 L18.9534071,18.2393309 C17.9262103,18.2393309 17.4630578,18.6376753 17.4630578,19.2368536 C17.4630578,19.7529446 17.768107,20.0463616 18.3428339,20.0463616 C18.7124539,20.0463616 18.9880664,19.8937183 19.2465867,19.6703321 L19.2938278,19.9874883 L19.7631525,19.9874883 L19.7631525,19.9872509 L19.7631525,19.9872509 Z M11.3516285,20.4838758 C11.1814182,20.7329004 10.9055683,20.9301734 10.60408,21.0412731 L10.3090012,20.6932558 C10.5385597,20.5755092 10.7351205,20.3853579 10.826754,20.2082632 C10.9055683,20.0506347 10.9385658,19.8476642 10.9385658,19.3624342 L10.9385658,16.0268339 L11.5740652,16.0268339 L11.5740652,19.3166175 C11.5740652,19.9656482 11.522551,20.2282042 11.3516285,20.4838758 L11.3516285,20.4838758 Z" id="Shape" fill="#FFFFFF"></path>
                    </g>
                </g>
                <path d="M276.462902,214.708159 C276.462902,214.708159 278.144544,221.081084 278.417307,223.36826 C278.69007,225.654961 278.808662,225.908749 274.665039,227.142111 C270.519044,228.373102 267.177107,229.682363 267.274353,230.640591 C267.371599,231.598818 270.149036,231.442276 273.353406,231.520547 C276.579123,231.598818 289.031338,232.184666 291.066386,231.890556 C293.099062,231.579844 292.159809,228.489322 291.476716,225.57669 C290.791251,222.683981 290.048862,217.327631 290.048862,217.327631 L276.462902,214.708159 Z" id="Path" fill="#657CE6" fill-rule="nonzero"></path>
                <path d="M321.248184,206.00916 C321.248184,206.00916 327.094796,212.734068 329.616073,215.685836 C332.13735,218.637841 334.347915,219.478425 331.767341,221.491889 C329.165421,223.505353 318.786203,231.579844 316.440443,232.654292 C314.094683,233.709765 312.256499,232.791859 312.372719,231.990174 C312.491312,231.188488 317.574188,224.482792 317.455595,222.489015 C316.732181,220.729576 311.160704,214.024117 310.555882,213.1055 C309.970035,212.166958 318.532415,204.191136 321.248184,206.00916 Z" id="Path" fill="#657CE6" fill-rule="nonzero"></path>
                <path d="M298.729835,180.614705 C298.729835,180.614705 300.743536,186.303351 305.140947,189.646237 C309.519383,192.989123 312.804396,195.276299 315.932867,199.44032 C319.058966,203.604103 321.445048,206.126092 321.445048,206.126092 C321.445048,206.126092 307.859088,215.216209 307.135673,215.685361 C307.135673,215.685361 304.690295,213.808753 303.928931,212.440433 C303.167567,211.071875 286.685578,193.51686 285.006308,191.718523 C283.324666,189.919949 277.145995,176.392099 277.145995,176.392099 C277.145995,176.392099 294.975195,175.062677 298.729835,180.614705 Z" id="Path" fill="url(#linearGradient-9)" fill-rule="nonzero"></path>
                <polygon id="Path" fill="#000000" fill-rule="nonzero" points="352.879183 182.706677 275.445378 182.706677 275.445378 185.287013 352.879183 185.287013"></polygon>
                <path d="M334.679974,177.330403 C334.679974,177.330403 332.723197,181.709551 329.499852,182.726126 C326.352407,182.90188 306.685022,182.921566 301.896255,182.49155 C297.126464,182.061296 286.118705,178.229809 283.832242,179.500409 C282.795743,180.086968 284.204622,185.599623 285.200799,191.151651 C286.178002,196.683992 290.205404,217.405902 290.205404,217.405902 C290.205404,217.405902 272.983397,215.29448 271.417976,214.864464 C271.126238,212.499017 270.108714,201.903487 269.444596,197.837423 C268.780478,193.771123 267.117811,191.523083 266.766777,189.196772 C266.413371,186.87046 266.531964,181.944127 265.554761,177.506394 C264.577559,173.068899 264.088957,166.793694 271.633814,162.531953 C279.159696,158.289898 308.307368,159.169618 308.307368,159.169618 C308.307368,159.169618 334.874466,173.753178 334.679974,177.330403 Z" id="Path" fill="#4E5161" fill-rule="nonzero"></path>
                <path d="M323.340156,168.025396 C329.321964,171.798299 334.758245,175.708057 334.658627,177.33064 C334.658627,177.33064 332.723197,181.709551 329.478506,182.726126 C326.33106,182.902117 306.666047,182.921566 301.896255,182.49155 C297.105117,182.061533 286.099731,178.229809 283.832242,179.500646 C283.772945,179.539545 283.716021,179.598367 283.656725,179.676401 L283.63775,179.656951 C283.63775,179.656951 281.780591,170.996851 305.805065,173.401195 C320.643362,174.886923 321.855378,171.329147 323.340156,168.025396 Z" id="Path" fill="#3F4253" fill-rule="nonzero"></path>
                <path d="M268.448419,194.025385 C270.402824,196.508001 272.96205,201.160623 275.933979,204.503509 C279.335213,208.335234 273.744761,206.63438 276.794961,209.508114 C278.749366,211.326137 280.763067,214.395312 281.956108,216.369877 C277.302537,215.76387 272.241008,215.079591 271.417976,214.864464 C271.126238,212.499017 270.108714,201.903487 269.463571,197.837423 C269.209783,196.351696 268.837402,195.100545 268.448419,194.025385 Z" id="Path" fill="#3F4253" fill-rule="nonzero"></path>
                <path d="M258.946785,128.555905 C258.360938,128.712447 258.398888,129.064193 258.417863,129.298769 L262.153527,157.175603 C262.231798,157.605619 262.31007,157.664441 262.699053,157.742475 L284.477385,161.163632 C285.16285,161.222217 285.708375,160.088473 284.693223,159.853897 L263.403493,156.51101 L259.748471,129.123015 C259.748471,129.123015 259.591929,128.477871 258.946785,128.555905 Z" id="Path" fill="#000000" fill-rule="nonzero"></path>
                <path d="M324.338705,131.429639 C323.57497,130.921352 322.519496,130.530471 321.072667,130.628191 C321.072667,130.628191 316.343197,130.198175 314.564309,135.59366 C312.785421,140.989146 311.160704,142.514009 308.992832,145.817759 C306.822589,149.140959 304.59305,152.952997 304.59305,152.952997 C304.59305,152.952997 297.22371,148.750078 294.624162,147.909494 C294.624162,147.909494 291.671208,151.897524 290.556438,155.513884 C289.814049,157.938153 293.431121,159.873346 295.914448,160.909607 C293.509392,166.207373 296.559592,169.511123 296.559592,169.511123 C298.357454,169.511123 311.495135,170.077996 316.343197,170.156267 C318.688957,170.195165 320.408549,169.882555 321.580243,169.550022 L321.620565,169.569708 C321.620565,169.569708 323.653241,170.156267 324.943527,171.817748 C326.233814,173.479467 327.896481,175.884049 330.847063,177.174335 C333.800017,178.464385 335.735447,178.171224 335.735447,178.171224 C335.403388,176.587777 335.500634,174.066025 336.869192,170.586283 C338.256725,167.106541 338.667055,163.880825 337.82742,158.817872 C337.004387,153.754683 338.294674,152.620701 339.781825,148.320062 C341.266603,144.019185 341.169357,139.210258 338.197428,135.554525 C335.206525,131.898791 329.929157,130.413064 329.929157,130.413064 L325.588671,129.592167 L324.338705,131.429639 Z" id="Path" fill="#9396A4" fill-rule="nonzero"></path>
                <path d="M321.426073,169.589157 C328.892659,166.93055 331.492207,161.711056 334.914787,154.38014 C337.592606,148.613222 339.214952,148.222104 339.800799,148.320062 C338.316021,152.601252 337.025734,153.754683 337.846394,158.817635 C338.667055,163.880825 338.256725,167.086855 336.888167,170.566597 C335.500634,174.046339 335.422363,176.56809 335.754422,178.171224 C335.754422,178.171224 333.818992,178.484071 330.86841,177.174098 C327.915456,175.884049 326.233814,173.479467 324.943527,171.817748 C323.653241,170.15603 321.620565,169.569708 321.620565,169.569708 L321.582615,169.550022 C321.542294,169.550022 321.482997,169.569708 321.426073,169.589157 Z" id="Path" fill="#7C829E" fill-rule="nonzero"></path>
                <path d="M294.330052,148.319825 C298.786759,152.933311 299.998775,160.166507 304.5551,153.070167 C306.039878,150.763542 313.546785,144.507786 315.052911,142.33778 C315.052911,142.33778 314.386421,143.608618 314.210904,144.937803 C314.054361,146.267225 313.096134,147.772401 311.983736,149.160408 C310.887941,150.548415 308.83629,154.966461 306.215395,158.56361 C306.196421,158.583059 306.177446,158.602508 306.158471,158.641644 C303.44033,158.739364 298.317133,158.97394 296.9296,159.404194 C296.324778,159.599634 295.933423,160.147057 295.66066,160.81165 C293.900747,160.068786 291.690182,158.87622 290.831573,157.410179 C290.753301,157.253637 290.67503,157.116781 290.615734,156.960476 C290.440217,156.510773 290.399896,156.022172 290.556438,155.533334 C291.455369,152.601015 293.547341,149.43412 294.330052,148.319825 Z" id="Path" fill="#7C829E" fill-rule="nonzero"></path>
                <path d="M327.505126,141.497434 C327.505126,141.497434 324.592493,150.020679 321.034718,154.712436 C317.476942,159.404194 305.591599,158.426754 302.463128,158.993864 C302.463128,158.993864 306.020904,160.968192 308.385639,162.395334 C310.77172,163.802791 319.879626,165.913975 325.842459,157.312459 C331.805291,148.730629 335.441338,141.282307 332.625951,138.70197 C329.850886,136.121397 328.442007,139.523105 327.505126,141.497434 Z" id="Path" fill="url(#linearGradient-10)" fill-rule="nonzero"></path>
                <path d="M294.58384,147.967842 C294.114214,147.733266 288.583058,145.074659 285.98351,145.270099 C283.265369,145.485226 280.058627,147.127258 279.961381,150.274704 C279.864136,153.421912 281.427185,152.327303 284.183275,152.737871 C286.588332,153.089616 289.814049,156.237062 290.499513,156.510773 C290.440217,156.197926 290.459192,155.86563 290.556438,155.513647 C291.611911,152.151312 294.251781,148.45668 294.58384,147.967842 Z" id="Path" fill="#D98951" fill-rule="nonzero"></path>
                <path d="M296.832354,159.462778 C296.832354,159.462778 295.072441,162.160521 294.99417,164.741095 C294.937246,167.341117 295.952398,168.338006 295.952398,168.338006 C295.952398,168.338006 293.665934,169.315446 291.711529,168.044845 C289.754752,166.754559 288.680304,162.101937 286.706924,161.280802 C284.731173,160.459904 282.169574,160.205642 282.836064,156.452189 C283.500182,152.698972 288.269974,152.855277 292.100513,155.709325 C295.933423,158.583059 296.481321,159.286787 296.832354,159.462778 Z" id="Path" fill="#DF9E66" fill-rule="nonzero"></path>
                <path d="M330.671546,130.64764 C330.671546,130.64764 329.888836,129.083642 329.75364,127.246169 C329.616073,125.40846 331.122198,124.352986 333.233145,121.928718 C335.344092,119.504686 335.382042,114.77403 331.864587,111.939432 C328.325786,109.104833 322.891877,109.163418 320.565091,111.313738 C318.219331,113.464057 314.407767,121.264125 315.814275,123.629572 C317.220782,125.995018 320.036169,127.44161 320.270982,128.223609 C320.505795,129.005608 319.979244,131.996512 319.979244,131.996512 C319.979244,131.996512 324.298384,134.009976 330.671546,130.64764 Z" id="Path" fill="#DF9E66" fill-rule="nonzero"></path>
                <path d="M316.440443,124.548189 C317.43662,125.721307 318.648636,125.564765 321.326455,125.017579 C324.103892,124.470156 325.707263,124.861036 324.317359,126.796467 C322.910851,128.71221 320.252007,129.845955 320.252007,129.845955 C320.330278,129.181362 320.349253,128.536219 320.252007,128.243058 C320.057515,127.53933 317.925222,126.36645 316.440443,124.548189 Z" id="Path" fill="#D98951" fill-rule="nonzero"></path>
                <path d="M329.810565,126.425035 C330.104674,125.037028 331.454257,123.961868 333.233145,121.928718 C335.344092,119.504686 335.382042,114.773793 331.864587,111.939195 C328.541625,109.280587 323.515673,109.163418 320.994396,110.942306 C320.994396,110.961755 320.975421,110.981441 320.975421,111.000891 C320.78093,112.134872 321.796082,112.545202 322.970148,112.564889 C324.141842,112.584338 324.239088,113.503193 324.141842,115.125776 C324.044596,116.748359 324.495248,116.904664 326.252789,117.04152 C327.993727,117.158926 329.265039,118.664103 328.619896,120.130381 C327.974752,121.596421 326.487602,121.889819 326.487602,121.889819 C326.976203,124.607011 328.854709,125.936434 329.810565,126.425035 Z" id="Path" fill="#1C223C" fill-rule="nonzero"></path>
                <path d="M229.311699,226.833771 C278.210956,226.833771 375.952546,223.327227 375.952546,219.002394 C375.952546,214.677799 278.210956,211.171967 229.311699,211.171967 C180.41339,211.171967 72.3044414,214.677799 72.3044414,219.002394 C72.3044414,223.327227 180.41339,226.833771 229.311699,226.833771 Z" id="Path" fill-opacity="0.2" fill="#1C2858" fill-rule="nonzero"></path>
                <path d="M219.104202,183.399494 L44.8011738,183.399494 C44.8011738,183.399494 50.6437533,177.550748 54.8635126,173.293276 C57.4602146,170.689222 64.1680452,168.973899 71.6697341,168.973899 L192.235642,168.973899 C199.737331,168.973899 206.445636,170.689222 209.042338,173.293276 L219.104202,183.399494 Z" id="Path" fill="#E2906F" fill-rule="nonzero"></path>
                <polygon id="Path" fill="#E9D8D8" fill-rule="nonzero" points="219.444326 183.399732 45.1137837 183.399732 45.1137837 251.707368 219.444326 251.707368"></polygon>
                <path d="M103.023938,153.4499 L109.357491,153.4499 C109.625036,153.4499 109.881907,153.556159 110.071181,153.745433 C110.260454,153.934706 110.366713,154.191341 110.366713,154.459123 L110.366713,177.774651 C110.366713,178.042195 110.260454,178.29883 110.071181,178.488103 C109.881907,178.677377 109.625273,178.783636 109.357491,178.783636 L103.023938,178.783636 C102.756394,178.783636 102.499759,178.677377 102.310486,178.488103 C102.121212,178.29883 102.014716,178.042195 102.014716,177.774414 L102.014716,154.458885 C102.014716,154.326536 102.040806,154.195373 102.091564,154.072748 C102.142321,153.950361 102.21656,153.839121 102.310486,153.745433 C102.404174,153.651745 102.515414,153.577506 102.637801,153.526748 C102.760189,153.47599 102.891352,153.4499 103.023938,153.4499 Z" id="Path" fill="#C14F4F" fill-rule="nonzero"></path>
                <path d="M108.278773,176.381426 C108.004587,176.381426 107.73301,176.327348 107.479697,176.222512 C107.226383,176.117439 106.996314,175.963743 106.802296,175.769963 C106.608516,175.575945 106.454583,175.345876 106.349747,175.092562 C106.244911,174.839248 106.190833,174.567672 106.190833,174.293486 L106.190833,157.940525 C106.190833,157.666339 106.244911,157.394762 106.349747,157.141448 C106.454583,156.888135 106.608516,156.657828 106.802296,156.464048 C106.996314,156.27003 107.226383,156.116334 107.479697,156.011499 C107.73301,155.906426 108.004587,155.852348 108.278773,155.852348 L108.278773,155.852348 C108.8326,155.852348 109.363658,156.072455 109.75525,156.464048 C110.146843,156.85564 110.366713,157.386698 110.366713,157.940525 L110.366713,174.293486 C110.366713,174.567672 110.312635,174.839248 110.207799,175.092562 C110.102964,175.345876 109.94903,175.575945 109.75525,175.769963 C109.561233,175.963743 109.331163,176.117439 109.07785,176.222512 C108.824536,176.327348 108.552959,176.381426 108.278773,176.381426 L108.278773,176.381426 Z M93.9072563,150.811216 L100.900658,150.811216 C101.19619,150.811216 101.479626,150.928623 101.688586,151.137583 C101.897546,151.346543 102.014953,151.629979 102.014953,151.925512 L102.014953,177.669578 C102.014953,177.96511 101.897546,178.248546 101.688586,178.457507 C101.479626,178.666467 101.19619,178.783873 100.900658,178.783873 L93.9074935,178.783873 C93.6119609,178.783873 93.3285248,178.666467 93.1195647,178.457507 C92.9106047,178.248546 92.7931981,177.96511 92.7931981,177.669578 L92.7931981,151.925275 C92.7931981,151.629742 92.9106047,151.346306 93.1195647,151.137346 C93.3285248,150.928386 93.6117237,150.811216 93.9072563,150.811216 Z" id="Shape" fill="#E06955" fill-rule="nonzero"></path>
                <path d="M100.057228,176.674112 C99.5380295,176.674112 99.0399409,176.467998 98.6727785,176.100836 C98.305616,175.733673 98.0995022,175.235585 98.0995022,174.716387 L98.0995022,154.878466 C98.0995022,154.621357 98.1500226,154.36662 98.2484544,154.129198 C98.3468862,153.891776 98.4910947,153.675937 98.6727785,153.494017 C98.8546994,153.312333 99.0705378,153.168124 99.30796,153.069692 C99.5453823,152.971261 99.800119,152.92074 100.057228,152.92074 L100.057228,152.92074 C100.576426,152.92074 101.074277,153.126854 101.44144,153.494017 C101.808602,153.861179 102.014953,154.35903 102.014953,154.878228 L102.014953,174.716387 C102.014953,174.973495 101.964195,175.228232 101.865764,175.465654 C101.767569,175.703076 101.623361,175.918915 101.44144,176.100836 C101.259756,176.28252 101.043917,176.426728 100.806258,176.52516 C100.568836,176.623592 100.314336,176.674112 100.057228,176.674112 L100.057228,176.674112 Z" id="Path" fill="#EB8E57" fill-rule="nonzero"></path>
                <path d="M99.4516942,154.923768 L95.356457,154.923768 C95.1610165,154.923768 94.9736403,154.846209 94.8353614,154.70793 C94.6970825,154.569888 94.619523,154.382275 94.619523,154.186834 L94.619523,154.186834 C94.619523,153.991394 94.6970825,153.804017 94.8353614,153.665738 C94.9736403,153.52746 95.1610165,153.4499 95.356457,153.4499 L99.4516942,153.4499 C99.6471347,153.4499 99.8345109,153.52746 99.9727897,153.665738 C100.111069,153.804017 100.188628,153.991394 100.188628,154.186834 L100.188628,154.186834 C100.188628,154.382275 100.111069,154.569888 99.9727897,154.70793 C99.8345109,154.846209 99.6471347,154.923768 99.4516942,154.923768 L99.4516942,154.923768 Z M99.4516942,161.613335 L95.356457,161.613335 C95.1610165,161.613335 94.9736403,161.535539 94.8353614,161.397497 C94.6970825,161.259218 94.619523,161.071842 94.619523,160.876164 L94.619523,160.876164 C94.619523,160.680724 94.6970825,160.493348 94.8353614,160.355069 C94.9736403,160.21679 95.1610165,160.13923 95.356457,160.13923 L99.4516942,160.13923 C99.5484657,160.13923 99.6442884,160.158205 99.7337072,160.195443 C99.823126,160.232444 99.9044805,160.286759 99.9727897,160.355069 C100.041336,160.423615 100.095652,160.504732 100.132652,160.594151 C100.169653,160.68357 100.188628,160.779393 100.188628,160.876164 L100.188628,160.876164 C100.188628,161.071842 100.111069,161.259218 99.9727897,161.397497 C99.8345109,161.535539 99.6471347,161.613335 99.4516942,161.613335 Z M95.4057915,155.871797 L99.4023597,155.871797 C99.6108454,155.871797 99.8107924,155.954574 99.9583215,156.102103 C100.105851,156.249632 100.188628,156.449579 100.188628,156.658065 L100.188628,158.40517 C100.188628,158.508346 100.16823,158.610573 100.128858,158.705921 C100.089248,158.801269 100.031374,158.888079 99.9583215,158.961132 C99.8852685,159.033948 99.7986959,159.092058 99.7033475,159.131431 C99.6079991,159.171041 99.5057724,159.191439 99.4023597,159.191439 L95.4057915,159.191439 C95.3023788,159.191439 95.200152,159.171041 95.1048036,159.131431 C95.0094553,159.092058 94.9226455,159.033948 94.8498297,158.961132 C94.7767767,158.888079 94.7189036,158.801269 94.6792937,158.705921 C94.6399209,158.610573 94.619523,158.508346 94.619523,158.40517 L94.619523,156.658065 C94.619523,156.449579 94.7023006,156.249632 94.8498297,156.102103 C94.9971216,155.954574 95.1973058,155.871797 95.4057915,155.871797 L95.4057915,155.871797 Z" id="Shape" fill="#C14F4F" fill-rule="nonzero"></path>
                <path d="M82.5624579,178.783636 L76.2289053,178.783636 C75.9613606,178.783636 75.7044891,178.67714 75.5152155,178.487866 C75.3259418,178.298593 75.2196829,178.041958 75.2196829,177.774414 L75.2196829,154.458885 C75.2196829,154.191341 75.3259418,153.934706 75.5152155,153.745433 C75.7044891,153.556159 75.9611234,153.449663 76.2289053,153.449663 L82.5624579,153.449663 C82.8300026,153.449663 83.0866368,153.556159 83.2759105,153.745433 C83.4651842,153.934706 83.5716803,154.191341 83.5716803,154.458885 L83.5716803,177.774414 C83.5716803,177.907 83.5455899,178.038163 83.4948323,178.160551 C83.4440747,178.282938 83.3698358,178.394178 83.2761477,178.488103 C83.1824596,178.581791 83.0712198,178.65603 82.9485951,178.706788 C82.8262076,178.757546 82.6950443,178.783636 82.5624579,178.783636 Z" id="Path" fill="#F1A043" fill-rule="nonzero"></path>
                <path d="M81.3777185,175.901838 C81.6658983,175.901838 81.9509948,175.84515 82.2171164,175.734859 C82.4834752,175.624805 82.7251668,175.463045 82.9289088,175.25954 C83.1326507,175.055798 83.2941738,174.81387 83.4044648,174.547748 C83.5145187,174.281626 83.5714431,173.99653 83.5714431,173.70835 L83.5714431,158.525423 C83.5714431,157.943608 83.3401877,157.385749 82.9289088,156.97447 C82.5176299,156.562954 81.9595334,156.331936 81.3779557,156.331936 L81.3779557,156.331936 C80.7961407,156.331936 80.2382815,156.562954 79.8267654,156.97447 C79.4154865,157.385749 79.1844683,157.943608 79.1844683,158.525423 L79.1844683,173.708587 C79.1844683,174.290165 79.4154865,174.848024 79.8267654,175.25954 C80.2380443,175.670819 80.7961407,175.901838 81.3777185,175.901838 L81.3777185,175.901838 Z" id="Path" fill="#FFC35F" fill-rule="nonzero"></path>
                <path d="M84.6024865,154.831266 L91.7619175,154.831266 C91.8973501,154.831266 92.0313597,154.858068 92.1565934,154.909774 C92.2815899,154.961718 92.3954387,155.037617 92.4910243,155.13344 C92.5868471,155.229025 92.6627463,155.342874 92.7146898,155.467871 C92.7663962,155.593104 92.7931981,155.727114 92.7931981,155.862546 L92.7931981,177.752593 C92.7931981,178.026067 92.6845673,178.288394 92.4910243,178.481699 C92.2977185,178.675242 92.0353918,178.783873 91.7621546,178.783873 L84.6024865,178.783873 C84.3290122,178.783873 84.0666855,178.675242 83.8733797,178.481699 C83.6800738,178.288394 83.5714431,178.026067 83.5714431,177.752593 L83.5714431,155.862309 C83.5714431,155.588835 83.6800738,155.326745 83.8733797,155.133202 C84.0666855,154.939897 84.3290122,154.831266 84.6024865,154.831266 L84.6024865,154.831266 Z" id="Path" fill="#A6BE64" fill-rule="nonzero"></path>
                <path d="M90.7915934,175.699756 C90.2607732,175.699756 89.7517741,175.488898 89.3763102,175.113434 C89.0010834,174.73797 88.7902259,174.228971 88.7902259,173.698151 L88.7902259,159.916751 C88.7902259,159.65395 88.8419322,159.39352 88.9424987,159.150643 C89.0430652,158.908003 89.1905943,158.687183 89.3763102,158.501467 C89.5622632,158.315514 89.7828454,158.168222 90.0257228,158.067656 C90.2686003,157.967089 90.5287924,157.915146 90.7915934,157.915146 L90.7915934,157.915146 C91.0543944,157.915146 91.3148236,157.967089 91.5574639,158.067656 C91.8003414,158.168222 92.0209235,158.315514 92.2068766,158.501467 C92.3928297,158.687183 92.5401216,158.908003 92.6406881,159.150643 C92.7412546,159.39352 92.7931981,159.65395 92.7931981,159.916751 L92.7931981,173.698151 C92.7931981,174.228971 92.5823406,174.738208 92.2068766,175.113434 C91.8314127,175.488898 91.3224136,175.699756 90.7915934,175.699756 L90.7915934,175.699756 Z" id="Path" fill="#CED66E" fill-rule="nonzero"></path>
                <path d="M89.8808028,157.707372 L87.0656533,157.707372 C86.5625838,157.707372 86.1548627,158.115093 86.1548627,158.618162 L86.1548627,163.135115 C86.1548627,163.637947 86.5625838,164.045668 87.0656533,164.045668 L89.8808028,164.045668 C90.3838723,164.045668 90.7915934,163.637947 90.7915934,163.135115 L90.7915934,158.618162 C90.7915934,158.115093 90.3838723,157.707372 89.8808028,157.707372 Z" id="Path" fill="#7FA069" fill-rule="nonzero"></path>
                <path d="M81.1770599,159.719175 L77.6918627,159.719175 C77.5718471,159.719175 77.4532546,159.695457 77.3424891,159.64968 C77.2314865,159.603904 77.1309201,159.536543 77.046245,159.451631 C76.9613328,159.366956 76.8939722,159.266389 76.8481955,159.155387 C76.8024188,159.044621 76.7787003,158.926029 76.7787003,158.806013 C76.7787003,158.686235 76.8024188,158.567405 76.8481955,158.456639 C76.8942094,158.345874 76.9613328,158.24507 77.046245,158.160395 C77.1309201,158.07572 77.2314865,158.00836 77.3424891,157.962346 C77.4532546,157.916569 77.5718471,157.892851 77.6918627,157.892851 L81.1770599,157.892851 C81.4194631,157.892851 81.6516672,157.989148 81.8229149,158.160395 C81.9941625,158.331643 82.0902224,158.563847 82.0902224,158.806013 L82.0902224,158.806013 C82.0902224,159.048179 81.9941625,159.280383 81.8229149,159.451631 C81.6516672,159.622878 81.4194631,159.719175 81.1770599,159.719175 L81.1770599,159.719175 Z M81.1770599,163.073684 L77.6918627,163.073684 C77.5718471,163.073684 77.4532546,163.049965 77.3424891,163.004189 C77.2314865,162.958175 77.1309201,162.891051 77.046245,162.806139 C76.9613328,162.721464 76.8939722,162.62066 76.8481955,162.509895 C76.8024188,162.399129 76.7787003,162.2803 76.7787003,162.160521 L76.7787003,162.160521 C76.7787003,162.040506 76.8024188,161.921913 76.8481955,161.811148 C76.8942094,161.700382 76.9613328,161.599579 77.046245,161.514904 C77.1309201,161.429991 77.2314865,161.362868 77.3424891,161.316854 C77.4532546,161.271077 77.5718471,161.247359 77.6918627,161.247359 L81.1770599,161.247359 C81.4194631,161.247359 81.6516672,161.343656 81.8229149,161.514904 C81.9941625,161.686151 82.0902224,161.918355 82.0902224,162.160521 L82.0902224,162.160521 C82.0902224,162.2803 82.0667411,162.399129 82.0207272,162.509895 C81.9749505,162.62066 81.9075899,162.721464 81.8229149,162.806139 C81.7380026,162.891051 81.6374361,162.958175 81.5266707,163.004189 C81.4159053,163.049965 81.2970756,163.073684 81.1770599,163.073684 Z" id="Shape" fill="#E4813F" fill-rule="nonzero"></path>
                <path d="M161.742894,171.441573 L172.93115,171.441573 L172.884662,169.557374 L161.696406,169.557374 C161.184798,169.557374 160.766166,169.976006 160.766166,170.487851 L160.766166,170.511096 C160.78941,171.022704 161.208042,171.441573 161.742894,171.441573 Z" id="Path" fill="#827E7E" fill-rule="nonzero"></path>
                <path d="M210.728724,150.204971 L182.46765,150.204971 C181.979286,150.204971 181.53741,150.484138 181.327976,150.926014 L171.256387,171.441573 L200.308235,171.441573 L210.728724,150.204971 Z" id="Path" fill="#827E7E" fill-rule="nonzero"></path>
                <path d="M211.403278,150.204971 C211.449766,150.204971 211.496255,150.228215 211.496255,150.228215 C211.682208,150.321429 211.705452,150.460894 211.635719,150.623603 L201.91303,170.487851 C201.633863,171.069429 201.005797,171.418328 200.354724,171.418328 L172.396061,171.418328 L182.793305,150.181727 L211.403278,150.204971 Z" id="Path" fill="#CEC4C3" fill-rule="nonzero"></path>
            </g>
        </g>
    </g>
</svg>